<?xml version="1.0" encoding="UTF-8" standalone="no"?>
<svg
   id="Layer_1"
   viewBox="0 0 287.74 91.03"
   version="1.1"
   sodipodi:docname="biciLeft.svg"
   inkscape:version="1.2.1 (9c6d41e410, 2022-07-14)"
   xmlns:inkscape="http://www.inkscape.org/namespaces/inkscape"
   xmlns:sodipodi="http://sodipodi.sourceforge.net/DTD/sodipodi-0.dtd"
   xmlns="http://www.w3.org/2000/svg"
   xmlns:svg="http://www.w3.org/2000/svg">
  <sodipodi:namedview
     id="namedview74"
     pagecolor="#ffffff"
     bordercolor="#000000"
     borderopacity="0.25"
     inkscape:showpageshadow="2"
     inkscape:pageopacity="0.0"
     inkscape:pagecheckerboard="0"
     inkscape:deskcolor="#d1d1d1"
     showgrid="false"
     inkscape:zoom="8.4103708"
     inkscape:cx="131.02871"
     inkscape:cy="44.468907"
     inkscape:window-width="1920"
     inkscape:window-height="1017"
     inkscape:window-x="1912"
     inkscape:window-y="-8"
     inkscape:window-maximized="1"
     inkscape:current-layer="Layer_1" />
  <defs
     id="defs41">
    <style
       id="style39">.cls-1{stroke:#303a3e;stroke-miterlimit:10;stroke-width:.3px;}.cls-1,.cls-2{fill:#303a3e;}.cls-3{fill:#e6474b;opacity:.15;}</style>
  </defs>
  <rect
     class="cls-3"
     x="81.12"
     y=".81"
     width="125.55"
     height="89.41"
     rx="11.84"
     ry="11.84"
     id="rect43"
     style="fill:#8082ff;fill-opacity:1" />
  <path
     class="cls-2"
     d="M57.85,41.97c-3.56,0-6.98,1.5-9.39,4.12l-4.56-3.54,4.12-9.57h2.08c.59,0,1.07-.48,1.07-1.07s-.48-1.08-1.07-1.08h-7.95c-.59,0-1.07,.48-1.07,1.08s.48,1.07,1.07,1.07h3.53l-3.69,8.58-20.63-8.38,1.72-4.99-.88-.41c-2.53-1.15-4.07-1.4-5.17-.84-.94,.49-1.23,1.41-1.37,2.16-.05,.29,.01,.57,.18,.81,.16,.24,.4,.39,.68,.45,.59,.11,1.14-.28,1.25-.86,.1-.5,.2-.63,.25-.65,.08-.05,.59-.23,2.39,.5l-2.52,7.34,.08,.05-.09-.03-1.94,5.65c-1.03-.26-2.08-.39-3.14-.39-7.06,0-12.8,5.75-12.8,12.8s5.74,12.8,12.8,12.8,12.8-5.74,12.8-12.8c0-5.07-2.99-9.65-7.63-11.71l1.38-4.04,13.48,13.03c-.49,.81-.74,1.75-.74,2.72,0,2.97,2.41,5.39,5.38,5.39,2.56,0,4.77-1.81,5.27-4.31h2.36c.55,6.58,6.13,11.72,12.75,11.72,7.06,0,12.81-5.74,12.81-12.8s-5.75-12.8-12.81-12.8ZM12.8,65.43c-5.88,0-10.66-4.78-10.66-10.66s4.78-10.65,10.66-10.65c.84,0,1.65,.1,2.44,.28l-.46,1.32c-.63-.14-1.3-.22-1.98-.22-5.11,0-9.27,4.16-9.27,9.27s4.16,9.27,9.27,9.27,9.27-4.16,9.27-9.27c0-3.54-2.06-6.81-5.26-8.35l.46-1.32c3.76,1.74,6.19,5.53,6.19,9.67,0,5.88-4.78,10.66-10.66,10.66Zm7.12-10.66c0,3.93-3.19,7.13-7.12,7.13s-7.12-3.2-7.12-7.13,3.19-7.12,7.12-7.12c.45,0,.87,.04,1.28,.12l-1.73,5.02c-.26,.05-.5,.16-.72,.32-.55,.38-.87,1-.87,1.66,0,.42,.13,.84,.38,1.18,.38,.54,1,.86,1.66,.86,.43,0,.83-.13,1.17-.37,.91-.65,1.14-1.92,.5-2.84-.03-.04-.06-.08-.09-.11l1.73-5.02c2.36,1.24,3.81,3.64,3.81,6.3Zm28.91-5.66l1.1,.86c-.69,1.13-1.13,2.42-1.29,3.73h-1.39c.16-1.64,.69-3.18,1.58-4.59Zm-28.71-12.32l.55-1.57,20.47,8.32-2.58,5.97c-.36-.08-.72-.12-1.09-.12-1.17,0-2.27,.37-3.2,1.06l-14.15-13.66Zm17.35,21.22c-1.79,0-3.24-1.45-3.24-3.24s1.45-3.23,3.24-3.23c.13,0,.25,.01,.34,.02,.71,.13,1.2,.34,1.75,.75,.73,.62,1.14,1.52,1.14,2.46,0,1.79-1.45,3.24-3.23,3.24Zm7.63-4.31h-2.36c-.27-1.34-1.07-2.56-2.2-3.35l2.48-5.76,4.11,3.2c-1.15,1.77-1.86,3.81-2.03,5.91Zm12.75,11.73c-5.42,0-10.06-4.2-10.6-9.58h1.39c.54,4.68,4.49,8.19,9.21,8.19,5.11,0,9.27-4.16,9.27-9.27s-4.16-9.27-9.27-9.27c-2.5,0-4.84,.99-6.6,2.77l-1.1-.85c2-2.1,4.8-3.3,7.7-3.3,5.88,0,10.66,4.78,10.66,10.65s-4.78,10.66-10.66,10.66Zm-1.72-9.58c.36,.59,1.02,.96,1.72,.96,1.13,0,2.04-.92,2.04-2.04s-.91-2.03-2.04-2.03c-.24,0-.47,.04-.71,.12l-4.18-3.25c1.32-1.27,3.05-1.96,4.89-1.96,3.93,0,7.12,3.2,7.12,7.12s-3.19,7.13-7.12,7.13c-3.51,0-6.51-2.6-7.04-6.05h5.32Zm-5.32-2.15c.13-.84,.4-1.65,.83-2.4l3.08,2.4h-3.91Z"
     id="path45" />
  <g
     id="g57">
    <path
       class="cls-2"
       d="M151.35,58.64s0,.04,.01,.06v-.12s-.01,.04-.01,.06Z"
       id="path47" />
    <g
       id="g55">
      <path
         class="cls-2"
         d="M87.92,58.64c0,10.8,8.78,19.58,19.57,19.58,10.79,0,19.57-8.78,19.57-19.58,0-7.46-4.19-13.96-10.35-17.25l1.49-3.39,20.13,18.71c-.16,.62-.24,1.26-.24,1.93,0,4.49,3.65,8.14,8.14,8.14,3.97,0,7.29-2.86,7.99-6.64h3.78c.76,10.1,9.22,18.08,19.51,18.08,10.8,0,19.58-8.78,19.58-19.58,0-10.79-8.78-19.57-19.58-19.57-3.42,0-6.64,.88-9.44,2.44l-1.16-1.77c3.24-1.82,6.87-2.77,10.6-2.77,7.56,0,14.68,4.03,18.59,10.53,.28,.47,.78,.73,1.29,.73,.26,0,.53-.07,.77-.22,.71-.42,.94-1.34,.51-2.05-4.45-7.4-12.55-11.99-21.16-11.99-4.32,0-8.52,1.12-12.24,3.26l-3.53-5.38,3.67-7.1h4.95c.83,0,1.5-.67,1.5-1.5,0-.83-.67-1.5-1.5-1.5h-12.24c-.82,0-1.5,.67-1.5,1.5s.68,1.5,1.5,1.5h3.91l-9.45,18.31c-14.74-.53-24.77-10.1-29.91-15.24l4.41-10.02-1.08-.69c-.08-.05-1.97-1.25-5.5-2.86-2.53-1.14-5.03-1.14-6.85,.01-1.28,.81-2.82,2.59-2.87,6.4-.01,.83,.65,1.51,1.48,1.52h.02c.82,0,1.49-.65,1.5-1.48,.02-1.36,.29-3.15,1.48-3.91,.93-.59,2.43-.52,3.99,.2,1.81,.82,3.17,1.53,4.03,2l-7,15.93-2.31,5.26c-2.03-.72-4.21-1.11-6.48-1.11-10.79,0-19.57,8.78-19.57,19.57Zm73.09,1.5h13.93c.51,.89,1.48,1.49,2.57,1.49,1.65,0,2.99-1.34,2.99-2.99,0-1.64-1.34-2.98-2.99-2.98-.05,0-.1,0-.15,.01l-7.64-11.65c2.32-1.24,4.97-1.95,7.79-1.95,9.14,0,16.58,7.43,16.58,16.57,0,9.14-7.44,16.58-16.58,16.58-8.63,0-15.74-6.64-16.5-15.08Zm0-3c.42-4.64,2.75-8.73,6.21-11.47l7.52,11.47h-13.73Zm-9.79-4.92l3.64-7.04,5.3-10.26,3.4,5.17,2.01,3.07c-4.27,3.28-7.14,8.29-7.57,13.98h-3.78c-.37-1.99-1.47-3.72-3-4.92Zm-10.13,6.42c0-2.83,2.3-5.14,5.14-5.14,.84,0,1.64,.21,2.34,.57,0,.01,.01,.01,.01,.01,.03,0,.06,.03,.09,.04,1.59,.87,2.67,2.54,2.69,4.46v.12c-.03,2.81-2.32,5.08-5.13,5.08s-5.14-2.3-5.14-5.14Zm-21.61-23.55l1.9-4.32c5.46,5.38,15.34,14.17,29.7,15.21l-2.51,4.87c-.74-.23-1.53-.35-2.34-.35-2.7,0-5.1,1.32-6.58,3.35l-20.17-18.76Zm-28.56,23.55c0-9.14,7.43-16.57,16.57-16.57,1.84,0,3.62,.3,5.27,.87l-5.6,12.74c-1.49,.16-2.65,1.43-2.65,2.96,0,1.65,1.33,2.99,2.98,2.99s2.98-1.34,2.98-2.99c0-.65-.21-1.26-.57-1.75l5.6-12.75c5.1,2.83,8.56,8.27,8.56,14.5,0,9.14-7.43,16.58-16.57,16.58-9.14,0-16.57-7.44-16.57-16.58Z"
         id="path49" />
      <path
         class="cls-2"
         d="M176.26,72.22c0,.69,.56,1.25,1.25,1.25,8.18,0,14.83-6.65,14.83-14.83,0-.69-.56-1.25-1.25-1.25s-1.25,.56-1.25,1.25c0,6.8-5.53,12.33-12.33,12.33-.69,0-1.25,.56-1.25,1.25Z"
         id="path51" />
      <path
         class="cls-2"
         d="M106.24,72.22c0,.69,.56,1.25,1.25,1.25,8.17,0,14.82-6.65,14.82-14.83,0-.69-.55-1.25-1.25-1.25s-1.25,.56-1.25,1.25c0,6.8-5.52,12.33-12.32,12.33-.69,0-1.25,.56-1.25,1.25Z"
         id="path53" />
    </g>
  </g>
  <path
     class="cls-1"
     d="M264.2,47.42c.05,.06,.12,.1,.18,.15,.02,.01,.03,.02,.05,.03-.08-.06-.16-.12-.23-.18Z"
     id="path59" />
  <g
     id="g67">
    <path
       class="cls-2"
       d="M229.79,62.51c-.45,0-.81-.36-.81-.81s.36-.81,.81-.81c4.41,0,8-3.59,8-8,0-.45,.36-.81,.81-.81s.81,.36,.81,.81c0,5.3-4.32,9.62-9.62,9.62Z"
       id="path61" />
    <path
       class="cls-2"
       d="M274.89,40.04c-4.08,0-7.81,1.85-10.24,5.07-3.17-2.65-3.97-5.08-2.67-8.09l.61-1.42s.04-.09,.05-.12l2.02-4.68c.06-.15,.1-.32,.09-.48h3.7c.62,0,1.12-.5,1.12-1.12s-.49-1.12-1.12-1.12h-7.94c-.63,0-1.12,.49-1.12,1.12s.5,1.12,1.12,1.12h1.9l-1.62,3.78c-8.47,1.5-12.43,.61-22.39-3.48l1.59-4.77-.93-.42c-2.48-1.11-4.44-1.28-5.65-.51-.74,.49-1.15,1.29-1.15,2.26,0,.62,.5,1.12,1.12,1.12s1.12-.5,1.12-1.12c0-.28,.09-.34,.13-.36,.3-.2,1.14-.23,2.56,.28l-4.42,13.29c-.97-.23-1.97-.35-2.98-.35-7.09,0-12.86,5.76-12.86,12.84s5.77,12.86,12.86,12.86,12.85-5.77,12.85-12.86c0-5.12-3.03-9.73-7.73-11.78l1.3-3.92,14.14,13.24c-.44,.75-.67,1.6-.67,2.46,0,2.71,2.2,4.92,4.91,4.92,2.27,0,4.26-1.59,4.78-3.79h2.71c.58,6.59,6.18,11.73,12.81,11.73,7.09,0,12.85-5.77,12.85-12.86s-5.76-12.84-12.85-12.84Zm-45.1,23.45c-5.85,0-10.61-4.76-10.61-10.61s4.76-10.6,10.61-10.6c.76,0,1.53,.08,2.27,.25l-3.34,10c-.2,.59,.12,1.23,.7,1.42,.11,.04,.23,.06,.37,.06,.48,0,.92-.31,1.06-.76l3.34-10.02c3.77,1.74,6.2,5.5,6.2,9.65,0,5.85-4.76,10.61-10.6,10.61Zm24.8-7.94c-1.47,0-2.66-1.2-2.66-2.67,0-.69,.26-1.35,.73-1.84,.52-.53,1.21-.82,1.93-.82,1.47,0,2.66,1.19,2.66,2.66s-1.19,2.67-2.66,2.67Zm4.78-3.79c-.52-2.2-2.51-3.78-4.78-3.78-.97,0-1.9,.28-2.7,.81l-14.9-13.96,.68-2.06c6.93,2.82,11.41,4.25,16.49,4.25,1.66,0,3.45-.15,5.59-.47-1.55,4.02-.16,7.51,4.35,10.97l.07,.06s.1,.07,.16,.12c1.43,1.06,3.15,2.15,5.43,3.41-.09,.24-.14,.45-.18,.65h-10.21Zm15.52,11.73c-5.38,0-9.98-4.15-10.55-9.48h5.24c.52,2.51,2.73,4.31,5.31,4.31,2.99,0,5.43-2.44,5.43-5.44s-2.44-5.42-5.43-5.42c-1.5,0-2.94,.63-3.97,1.72-1.8-.99-3.26-1.88-4.47-2.71,2.02-2.67,5.08-4.19,8.44-4.19,5.84,0,10.6,4.76,10.6,10.6s-4.76,10.61-10.6,10.61Zm-3.18-10.61c0-.56,.15-1.12,.41-1.57,.03-.05,.07-.09,.09-.14,.59-.92,1.59-1.46,2.68-1.46,1.75,0,3.18,1.42,3.18,3.17s-1.43,3.19-3.18,3.19-3.18-1.43-3.18-3.19Z"
       id="path63" />
    <path
       class="cls-2"
       d="M252.24,46.09c-.22,.39-.08,.88,.31,1.1,.12,.07,.26,.11,.4,.11,.29,0,.56-.15,.71-.41l3.04-5.31h-3l1.48-2.52c.23-.38,.1-.88-.29-1.11-.39-.23-.89-.1-1.12,.29l-2.91,4.96h3.04l-1.65,2.89Z"
       id="path65" />
  </g>
  <path
     class="cls-2"
     d="M196.54,0H91.24c-6.21,0-11.26,5.05-11.26,11.26V79.78c0,6.2,5.05,11.25,11.26,11.25h105.3c6.21,0,11.26-5.05,11.26-11.25V11.26c0-6.21-5.05-11.26-11.26-11.26Zm8.46,79.78c0,4.66-3.79,8.45-8.46,8.45H91.24c-4.66,0-8.46-3.79-8.46-8.45V11.26c0-4.67,3.8-8.46,8.46-8.46h105.3c4.67,0,8.46,3.79,8.46,8.46V79.78Z"
     id="path69" />
  <path
     class="cls-2"
     d="M200.8,16.54l-1.5-1.5c.4-.65,.63-1.41,.63-2.23,0-2.35-1.92-4.26-4.27-4.26s-4.26,1.91-4.26,4.26,1.91,4.27,4.26,4.27c.81,0,1.57-.23,2.22-.64l1.51,1.51c.19,.2,.45,.3,.7,.3s.52-.1,.71-.3c.39-.39,.39-1.02,0-1.41Zm-7.4-3.73c0-1.25,1.01-2.26,2.26-2.26s2.27,1.01,2.27,2.26-1.02,2.27-2.27,2.27-2.26-1.02-2.26-2.27Z"
     id="path71" />
</svg>
