<?xml version="1.0" encoding="UTF-8" standalone="no"?>
<svg
   id="Layer_1"
   viewBox="0 0 233.6 81.33"
   version="1.1"
   sodipodi:docname="biciRigth.svg"
   inkscape:version="1.2.2 (732a01da63, 2022-12-09)"
   xmlns:inkscape="http://www.inkscape.org/namespaces/inkscape"
   xmlns:sodipodi="http://sodipodi.sourceforge.net/DTD/sodipodi-0.dtd"
   xmlns="http://www.w3.org/2000/svg"
   xmlns:svg="http://www.w3.org/2000/svg">
  <sodipodi:namedview
     id="namedview3802"
     pagecolor="#ffffff"
     bordercolor="#000000"
     borderopacity="0.25"
     inkscape:showpageshadow="2"
     inkscape:pageopacity="0.0"
     inkscape:pagecheckerboard="0"
     inkscape:deskcolor="#d1d1d1"
     showgrid="false"
     inkscape:zoom="3.6626677"
     inkscape:cx="95.012713"
     inkscape:cy="43.001444"
     inkscape:window-width="1920"
     inkscape:window-height="914"
     inkscape:window-x="1912"
     inkscape:window-y="-8"
     inkscape:window-maximized="1"
     inkscape:current-layer="g3799" />
  <defs
     id="defs3733">
    <style
       id="style3731">.cls-1{fill:#e6474b;}.cls-2{fill:#fff;}.cls-3{fill:#303a3e;}</style>
  </defs>
  <path
     class="cls-1"
     d="M86.63,41.86c-8.25,0-14.94,6.69-14.94,14.95s6.69,14.94,14.94,14.94,14.95-6.69,14.95-14.94-6.69-14.95-14.95-14.95Zm8.64,9.83c-.94,.53-1.87,1.13-2.75,1.8-2.4,1.8-4.69,4.12-6.8,6.91-.8,1.03-1.55,2.12-2.23,3.21-.12,.2-.27,.36-.44,.5-.33,.27-.74,.42-1.21,.43-.45,0-.88-.15-1.22-.44-.15-.11-.29-.26-.4-.44l-2.71-4.15c-.42-.65-.24-1.52,.41-1.94,.23-.15,.49-.22,.75-.22,.46,0,.91,.22,1.18,.63l1.98,3.03,.42-.62c2.19-3.19,5.85-7.62,10.84-10.67,.18-.11,.36-.21,.54-.32l.27-.15c.68-.38,1.53-.14,1.91,.53,.12,.22,.18,.45,.18,.69,0,.49-.26,.96-.72,1.22Z"
     id="path3735"
     style="fill:#4e51ff;fill-opacity:1" />
  <path
     class="cls-3"
     d="M212.66,52.86s.03,.06,.04,.1h.02l-.06-.1Zm-21.15,1.69l.03,.14s0-.1,.01-.14h-.04Zm-11.72-1.06l.03,.03s0-.02,.02-.03h-.05Z"
     id="path3737" />
  <path
     class="cls-3"
     d="M185.07,51.43h-.36l.04-.07c.11,0,.21,.04,.32,.07Z"
     id="path3739" />
  <g
     id="g3747">
    <path
       class="cls-2"
       d="M183.2,52.84v.05l-.04-.04s.03-.01,.04-.01Z"
       id="path3741" />
    <path
       class="cls-2"
       d="M185.07,51.43h-.36l.04-.07c.11,0,.21,.04,.32,.07Z"
       id="path3743" />
    <path
       class="cls-3"
       d="M179.79,53.49l.03,.03s0-.02,.02-.03h-.05Zm4.96-2.13l-.04,.07h.36c-.11-.03-.21-.06-.32-.07Z"
       id="path3745" />
  </g>
  <path
     class="cls-3"
     d="M102.63,81.33H11.36c-6.26,0-11.36-5.09-11.36-11.36V11.36C0,5.09,5.09,0,11.36,0H102.63c6.26,0,11.36,5.09,11.36,11.36v58.62c0,6.26-5.09,11.36-11.36,11.36ZM11.36,3C6.75,3,3,6.75,3,11.36v58.62c0,4.61,3.75,8.36,8.36,8.36H102.63c4.61,0,8.36-3.75,8.36-8.36V11.36c0-4.61-3.75-8.36-8.36-8.36H11.36Z"
     id="path3749" />
  <g
     id="g3755">
    <path
       class="cls-3"
       d="M51.69,35.55s-.07,.05-.11,.07c-.02,.01-.04,.02-.06,.02,.06-.02,.12-.05,.17-.09Z"
       id="path3751" />
    <path
       class="cls-3"
       d="M50.55,25.08c-.99,0-1.94,.16-2.83,.45l-2.69-5.1,1.6-3.17h2.31c.72,0,1.3-.59,1.3-1.3s-.58-1.3-1.3-1.3h-6.98c-.71,0-1.3,.58-1.3,1.3s.59,1.3,1.3,1.3h2.2l-1.06,2.1h-14.35l.59-1.54c.07-.17,.09-.35,.06-.52,.01-.03,.01-.06,.01-.09,0-.61-.49-1.1-1.1-1.1h-4.44c-1.29,0-2.42,.35-3.29,1-.86,.67-1.36,1.59-1.36,2.53,0,1.48,1.26,2.97,4.08,2.97,.61,0,1.1-.5,1.1-1.1s-.49-1.1-1.1-1.1c-1.24,0-1.88-.39-1.88-.77,0-.45,.74-1.33,2.45-1.33h2.92l-2.73,7.05c-.72-.18-1.47-.28-2.25-.28-5.05,0-9.17,4.11-9.17,9.17s4.12,9.17,9.17,9.17,9.18-4.11,9.18-9.17c0-3.5-1.97-6.55-4.87-8.09l1.15-2.98,8.48,11.83s.05,.06,.09,.09c.01,.03,.04,.06,.07,.09,.04,.04,.08,.07,.12,.09,.03,.04,.07,.06,.11,.08,.04,.03,.08,.05,.12,.06,.08,.05,.16,.07,.25,.09,.09,.03,.18,.04,.28,.04h.02l4.67,.07c.65,4.41,4.47,7.8,9.07,7.8,5.05,0,9.17-4.11,9.17-9.17s-4.12-9.17-9.17-9.17Zm-22.16,9.17c0,3.62-2.95,6.57-6.58,6.57s-6.57-2.95-6.57-6.57,2.95-6.57,6.57-6.57c.45,0,.89,.04,1.31,.13l-1.89,4.89c-.22,.57,.07,1.2,.63,1.42,.13,.05,.27,.08,.4,.08,.44,0,.86-.27,1.03-.71l1.88-4.87c1.93,1.13,3.22,3.23,3.22,5.63Zm8.36-2.31l-7.15-9.98h12.19l-5.04,9.98Zm4.71,1.08l-2.77-.04,4.9-9.7,1.79,3.4c-2.1,1.43-3.57,3.71-3.92,6.34Zm5.15-4.01l2.18,4.13-4.71-.08c.3-1.66,1.23-3.1,2.53-4.05Zm3.94,11.81c-3.14,0-5.78-2.21-6.42-5.16l6.82,.11h.02c.13,0,.25-.02,.37-.06,.06-.01,.12-.03,.18-.07,.06-.02,.12-.05,.17-.09,.04-.03,.08-.06,.12-.1,.02-.01,.04-.03,.06-.05,.04-.03,.08-.08,.11-.12,.14-.17,.23-.37,.27-.58,.01-.06,.02-.12,.02-.19,.01-.14-.01-.28-.06-.41-.01-.06-.03-.12-.07-.18,0-.02-.01-.04-.02-.06l-3.16-5.98c.51-.13,1.04-.2,1.59-.2,3.62,0,6.57,2.95,6.57,6.57s-2.95,6.57-6.57,6.57Z"
       id="path3753" />
  </g>
  <path
     class="cls-3"
     d="M101.85,15.43l-21.56-.04c-.55-1.38-1.9-2.35-3.47-2.35s-2.9,.96-3.47,2.33h-1.93c-.76-.03-1.4,.62-1.4,1.39s.62,1.4,1.4,1.41h1.93c.55,1.38,1.9,2.35,3.47,2.35s2.9-.96,3.47-2.33l21.55,.04c.78,0,1.4-.63,1.41-1.4,0-.77-.63-1.4-1.4-1.4Zm-24.01,2.75c-.29,.22-.64,.34-1.02,.34s-.73-.12-1.02-.34c-.44-.31-.72-.82-.72-1.4s.28-1.09,.72-1.4c.29-.22,.64-.34,1.02-.34s.73,.12,1.02,.34c.44,.31,.72,.82,.72,1.4s-.28,1.09-.72,1.4Z"
     id="path3757" />
  <path
     class="cls-3"
     d="M101.85,27.43l-14.55-.03c-.56-1.38-1.91-2.36-3.48-2.36s-2.92,.97-3.47,2.35l-8.93-.02c-.77,0-1.4,.62-1.4,1.39s.62,1.41,1.4,1.41l8.94,.02c.56,1.37,1.9,2.33,3.46,2.33s2.9-.96,3.46-2.32l14.56,.03c.78,0,1.4-.62,1.41-1.4,0-.77-.63-1.4-1.4-1.4Zm-17.03,2.77c-.28,.2-.63,.32-1,.32s-.72-.12-1-.33c-.45-.3-.74-.82-.74-1.41s.28-1.08,.71-1.39c.29-.22,.64-.35,1.03-.35s.74,.13,1.03,.36h.01c.42,.3,.7,.81,.7,1.38s-.29,1.11-.74,1.42Z"
     id="path3759" />
  <g
     id="g3773">
    <path
       class="cls-3"
       d="M16.85,53.7c.24,0,.36,.12,.36,.36v7.68c0,.23-.12,.36-.36,.36h-1.32c-.23,0-.36-.13-.36-.36v-7.68c0-.24,.13-.36,.36-.36h1.32Z"
       id="path3761" />
    <path
       class="cls-3"
       d="M22.41,53.7c2.25,0,3,.91,3,2.88v2.63c0,1.97-.74,2.89-3,2.89h-2.67c-.23,0-.36-.13-.36-.36v-7.66c0-.24,.12-.36,.36-.37h2.67Zm.04,6.33c.58,0,.86-.1,.86-.82v-2.64c0-.74-.29-.82-.86-.82h-.65c-.23,0-.36,.12-.36,.36v3.55c0,.23,.13,.36,.36,.36h.65Z"
       id="path3763" />
    <path
       class="cls-3"
       d="M32.73,60.03c.24,0,.36,.12,.36,.36v1.34c0,.24-.12,.36-.36,.36h-5.11c-.23,0-.36-.13-.36-.36v-1.03c0-2.76,3.53-3.54,3.72-4.49,.07-.36-.12-.67-.59-.67-.56,0-.84,.31-.92,.8-.04,.24-.16,.35-.4,.3l-1.37-.3c-.22-.05-.32-.18-.31-.4,.07-.86,.53-2.47,3-2.47,2.69,0,2.78,2.12,2.77,2.48,0,2.35-3.14,2.72-3.56,3.93-.02,.08,.01,.13,.11,.13h3.02Z"
       id="path3765" />
    <path
       class="cls-3"
       d="M41.56,58.86c0,.23-.12,.36-.36,.36h-.14c-.23,0-.36,.12-.36,.36v2.16c0,.23-.12,.36-.36,.36h-1.34c-.23,0-.36-.13-.36-.36v-2.16c0-.24-.12-.36-.36-.36h-3.03c-.23,0-.36-.13-.36-.36v-1.68s.04-.11,.07-.24l1.03-2.05c.1-.19,.19-.29,.41-.29h1.32c.26,0,.42,.17,.3,.41l-1.01,2.01c-.02,.08,0,.13,.1,.13h1.18c.24,0,.36-.13,.36-.36v-2.97c0-.24,.13-.36,.36-.36h1.34c.24,0,.36,.12,.36,.36v2.97c0,.23,.13,.36,.36,.36h.14c.24,0,.36,.12,.36,.36v1.34Z"
       id="path3767" />
    <path
       class="cls-3"
       d="M49.42,59.35c0,1.55-1.01,2.94-3.01,2.94s-3.01-1.39-3.01-2.94c0-.79,.25-1.45,.79-1.91-.35-.46-.52-1.03-.52-1.64,0-1.39,.82-2.31,2.73-2.31s2.73,.92,2.73,2.31c0,.61-.18,1.2-.53,1.67,.54,.46,.8,1.1,.8,1.88Zm-2.06,0c0-.61-.37-.88-.95-.88-.53,0-.95,.26-.95,.88s.37,.88,.95,.88c.53,0,.95-.29,.95-.88Zm-.95-2.54c.48,0,.86-.26,.86-.79,0-.56-.34-.83-.86-.83-.48,0-.86,.26-.86,.83,0,.53,.34,.79,.86,.79Z"
       id="path3769" />
    <path
       class="cls-3"
       d="M57.33,55.4c0,.24-.12,.36-.36,.36h-3.01c-.07,0-.12,.04-.12,.12v.24c0,.23,.13,.36,.36,.36h.37c2.22,0,2.99,1.79,2.99,2.91,0,1.26-.77,2.91-2.99,2.91-2.47,0-2.93-1.61-3-2.47-.01-.22,.1-.35,.31-.4l1.37-.3c.24-.05,.36,.06,.4,.3,.08,.49,.36,.8,.92,.8s.82-.46,.76-.85c-.1-.65-.56-.92-1.49-.92h-1.7c-.23,0-.36-.13-.36-.36v-4.05c0-.23,.13-.36,.36-.36h4.83c.24,0,.36,.12,.36,.36v1.34Z"
       id="path3771" />
  </g>
  <g
     id="g3787">
    <path
       class="cls-3"
       d="M162.11,4.19c.24,0,.36,.12,.36,.36v7.68c0,.23-.12,.36-.36,.36h-1.32c-.23,0-.36-.13-.36-.36V4.55c0-.24,.13-.36,.36-.36h1.32Z"
       id="path3775" />
    <path
       class="cls-3"
       d="M167.66,4.19c2.25,0,3,.91,3,2.88v2.63c0,1.97-.74,2.89-3,2.89h-2.67c-.23,0-.36-.13-.36-.36V4.56c0-.24,.12-.36,.36-.37h2.67Zm.04,6.33c.58,0,.86-.1,.86-.82v-2.64c0-.74-.29-.82-.86-.82h-.65c-.23,0-.36,.12-.36,.36v3.55c0,.23,.13,.36,.36,.36h.65Z"
       id="path3777" />
    <path
       class="cls-3"
       d="M177.98,10.52c.24,0,.36,.12,.36,.36v1.34c0,.24-.12,.36-.36,.36h-5.11c-.23,0-.36-.13-.36-.36v-1.03c0-2.76,3.53-3.54,3.72-4.49,.07-.36-.12-.67-.59-.67-.56,0-.84,.31-.92,.8-.04,.24-.16,.35-.4,.3l-1.37-.3c-.22-.05-.32-.18-.31-.4,.07-.86,.53-2.47,3-2.47,2.69,0,2.78,2.12,2.77,2.48,0,2.35-3.14,2.72-3.56,3.93-.02,.08,.01,.13,.11,.13h3.02Z"
       id="path3779" />
    <path
       class="cls-3"
       d="M186.81,9.35c0,.23-.12,.36-.36,.36h-.14c-.23,0-.36,.12-.36,.36v2.16c0,.23-.12,.36-.36,.36h-1.34c-.23,0-.36-.13-.36-.36v-2.16c0-.24-.12-.36-.36-.36h-3.03c-.23,0-.36-.13-.36-.36v-1.68s.04-.11,.07-.24l1.03-2.05c.1-.19,.19-.29,.41-.29h1.32c.26,0,.42,.17,.3,.41l-1.01,2.01c-.02,.08,0,.13,.1,.13h1.18c.24,0,.36-.13,.36-.36v-2.97c0-.24,.13-.36,.36-.36h1.34c.24,0,.36,.12,.36,.36v2.97c0,.23,.13,.36,.36,.36h.14c.24,0,.36,.12,.36,.36v1.34Z"
       id="path3781" />
    <path
       class="cls-3"
       d="M194.67,9.84c0,1.55-1.01,2.94-3.01,2.94s-3.01-1.39-3.01-2.94c0-.79,.25-1.45,.79-1.91-.35-.46-.52-1.03-.52-1.64,0-1.39,.82-2.31,2.73-2.31s2.74,.92,2.74,2.31c0,.61-.18,1.2-.53,1.67,.54,.46,.8,1.1,.8,1.88Zm-2.06,0c0-.61-.37-.88-.95-.88-.53,0-.95,.26-.95,.88s.37,.88,.95,.88c.53,0,.95-.29,.95-.88Zm-.95-2.54c.48,0,.86-.26,.86-.79,0-.56-.34-.83-.86-.83-.48,0-.86,.26-.86,.83,0,.53,.34,.79,.86,.79Z"
       id="path3783" />
    <path
       class="cls-3"
       d="M202.58,5.89c0,.24-.12,.36-.36,.36h-3.01c-.07,0-.12,.04-.12,.12v.24c0,.23,.13,.36,.36,.36h.37c2.22,0,2.99,1.79,2.99,2.91,0,1.26-.77,2.91-2.99,2.91-2.47,0-2.93-1.61-3-2.47-.01-.22,.1-.35,.31-.4l1.37-.3c.24-.05,.36,.06,.4,.3,.08,.49,.36,.8,.92,.8s.82-.46,.76-.85c-.1-.65-.56-.92-1.49-.92h-1.7c-.23,0-.36-.13-.36-.36V4.55c0-.23,.13-.36,.36-.36h4.83c.24,0,.36,.12,.36,.36v1.34Z"
       id="path3785" />
  </g>
  <path
     class="cls-3"
     d="M212.55,35c-2.76,0-5.4,.53-7.82,1.51l-3.84-7.9,3.42-6.11h5.21c.83,0,1.5-.67,1.5-1.5s-.67-1.5-1.5-1.5h-13.24c-.83,0-1.5,.67-1.5,1.5s.67,1.5,1.5,1.5h4.59l-2.53,4.53h-35.29l1.84-5.39c.17-.49,.09-1.04-.21-1.47-.3-.42-.79-.67-1.31-.67h-8.77c-5.33,0-8.51,3.2-8.51,6.29,0,2.39,1.93,5.19,7.39,5.19,.83,0,1.5-.67,1.5-1.5s-.67-1.5-1.5-1.5c-2.63,0-4.39-.88-4.39-2.19,0-.69,.47-1.46,1.25-2.06,1.04-.8,2.56-1.23,4.26-1.23h6.83l-2.17,6.35-2.34,6.84c-1.72-.45-3.52-.69-5.38-.69-11.61,0-21.05,9.44-21.05,21.05s9.44,21.06,21.05,21.06c7.96,0,14.9-4.44,18.48-10.98h-3.5c-3.26,4.81-8.76,7.98-14.98,7.98-9.96,0-18.05-8.1-18.05-18.06s8.09-18.05,18.05-18.05c1.52,0,2.99,.19,4.4,.55l-2.12,6.21h3.17l1.79-5.24c2.68,1.18,5.02,2.99,6.84,5.24h3.67c-2.27-3.57-5.6-6.42-9.54-8.09l1.75-5.13,11.02,13.22h3.9l-12.27-14.73h32.52l-8.23,14.73h3.43l7.24-12.96,2.92,6.02c-2.94,1.7-5.43,4.09-7.24,6.94h3.68c1.35-1.68,3-3.12,4.87-4.24l2.06,4.24h3.33l-2.69-5.54c2.02-.79,4.22-1.22,6.51-1.22,9.95,0,18.05,8.1,18.05,18.05s-8.1,18.06-18.05,18.06c-6.23,0-11.73-3.17-14.98-7.98h-3.5c3.57,6.54,10.52,10.98,18.48,10.98,11.61,0,21.05-9.45,21.05-21.06s-9.44-21.05-21.05-21.05Z"
     id="path3789" />
  <g
     id="g3799">
    <path
       class="cls-1"
       d="M155.32,53.49h-.61c-.21,0-.37,.16-.37,.38v.88c0,.11,.04,.21,.11,.27t.01,.01c.06,.06,.15,.1,.25,.1h.61c.58,0,.87-.08,.87-.82s-.29-.82-.87-.82Z"
       id="path3791"
       style="fill:#4e51ff;fill-opacity:1" />
    <path
       class="cls-1"
       d="M209.91,53.49h-.65c-.22,0-.36,.12-.36,.36v3.55c0,.06,.01,.11,.03,.15,.04,.14,.16,.21,.33,.21h.66c.34,0,.58-.03,.7-.21,.1-.12,.15-.31,.15-.6v-2.64c0-.35-.06-.56-.2-.67-.14-.13-.36-.15-.66-.15Z"
       id="path3793"
       style="fill:#4e51ff;fill-opacity:1" />
    <path
       class="cls-1"
       d="M186.27,53.49h-.61c-.22,0-.37,.16-.37,.38v.88c0,.22,.15,.38,.37,.38h.61c.31,0,.53-.02,.68-.16,.09-.08,.14-.22,.17-.42,.01-.07,.01-.15,.01-.24,0-.37-.07-.57-.21-.69-.15-.11-.36-.13-.65-.13Z"
       id="path3795"
       style="fill:#4e51ff;fill-opacity:1" />
    <path
       class="cls-1"
       d="M144.29,44.76v21.37h75.51v-21.37h-75.51Zm13.89,15.07h-1.37c-.12,0-.23-.06-.28-.17l-1.24-2.41s-.06-.06-.1-.06h-.48c-.21,0-.37,.15-.37,.37v1.9c0,.21-.16,.37-.37,.37h-1.35c-.21,0-.37-.16-.37-.37v-7.66c0-.21,.16-.37,.37-.37h2.63c2.14,0,3,.91,3,2.88,0,1.12-.28,1.89-.91,2.35-.05,.04-.06,.1-.04,.16l1.27,2.36c.17,.31-.02,.65-.39,.65Zm7.91-6.7c0,.23-.12,.36-.36,.36h-2.91c-.22,0-.36,.12-.36,.36v.39c0,.23,.14,.36,.36,.36h1.86c.24,0,.36,.12,.36,.36v1.34c0,.23-.12,.36-.36,.36h-1.86c-.22,0-.36,.12-.36,.36v.38c0,.23,.14,.36,.36,.36h2.91c.24,0,.36,.12,.36,.36v1.35c0,.24-.12,.36-.36,.36h-5.04c-.23,0-.36-.13-.36-.36v-7.68c0-.24,.13-.36,.36-.36h5.04c.24,0,.36,.12,.36,.36v1.34Zm6.19,6.49c-.45,.24-1.04,.39-1.8,.39-.51,0-.93-.07-1.29-.18h0c-1.43-.46-1.78-1.67-1.83-2.41-.01-.22,.1-.35,.31-.4l1.36-.3c.24-.05,.37,.06,.39,.31,0,.15,.05,.28,.12,.4,.03,.07,.08,.14,.15,.2,0,.02,.02,.03,.03,.04,.05,.05,.1,.09,.16,.11,.03,.03,.06,.04,.1,.05,.05,.03,.1,.05,.15,.06,.11,.03,.23,.05,.35,.05,.59,0,1.02-.34,.95-.67-.11-.48-.96-.68-1.84-1.05-.98-.41-2-1.04-2-2.5-.01-.28,.12-1.61,1.42-2.2,.38-.17,.86-.28,1.47-.28,.67,0,1.2,.12,1.62,.31,1.13,.51,1.45,1.53,1.5,2.16,.01,.22-.1,.35-.31,.4l-.78,.17-.59,.13c-.24,.04-.36-.06-.4-.3-.08-.5-.48-.81-1.04-.81-.47,0-.76,.28-.71,.55,.11,.6,1.67,.81,2.8,1.58,.65,.45,1.16,1.08,1.16,2.09,0,.26-.22,1.47-1.45,2.1Zm9.03-6.49c0,.23-.12,.36-.36,.36h-1.11s-.02,.02-.02,.03l-.03-.03h-1.74c-.23,0-.36,.12-.36,.36v.39c0,.12,.04,.21,.1,.28,.06,.05,.15,.08,.26,.08h1.86c.24,0,.36,.12,.36,.36v1.34c0,.23-.12,.36-.36,.36h-1.86c-.23,0-.36,.12-.36,.36v.38c0,.14,.05,.24,.14,.3,.05,.04,.13,.06,.22,.06h2.9c.06,0,.11,.01,.16,.02h.01c.11,.05,.17,.13,.18,.27,.01,.02,.01,.04,.01,.07v1.35c0,.23-.11,.34-.32,.36h-5.07c-.23,0-.36-.13-.36-.36v-7.68c0-.24,.13-.36,.36-.36h5.03c.24,0,.36,.12,.36,.36v1.34Zm7.81,6.7h-1.36c-.12,0-.23-.06-.28-.17l-.18-.34-.75-1.45-.16-.32-.16-.3s-.06-.06-.09-.06h-.48c-.22,0-.36,.15-.37,.36v1.91c0,.21-.16,.37-.38,.37h-1.34c-.21,0-.37-.16-.37-.37v-6.57l-.04-.04s.03-.01,.04-.01v-1.04c0-.21,.16-.37,.37-.37h1.14l.04-.07c.11,0,.21,.04,.32,.07h1.13c.74,0,1.32,.11,1.76,.33,.87,.42,1.24,1.26,1.24,2.55,0,.08,0,.16-.01,.24-.02,.78-.21,1.38-.57,1.8-.1,.12-.21,.22-.33,.31-.05,.04-.06,.1-.04,.16l.22,.41,.17,.32,.76,1.4,.12,.23c.17,.31-.02,.65-.4,.65Zm8.3-8l-.62,2.72-.68,3-.45,1.96c-.05,.21-.18,.32-.4,.32h-2.23c-.22,0-.35-.11-.4-.32l-.45-1.96-.65-2.86-.03-.14-.62-2.72c-.06-.25,.06-.4,.31-.4h1.43c.22,0,.35,.11,.4,.31l.64,2.81,.41,1.8c.03,.11,.12,.11,.15,0l.28-1.23,.13-.57,.64-2.81c.05-.2,.18-.31,.4-.31h1.43c.25,0,.37,.15,.31,.4Zm7.53,1.3c0,.23-.12,.36-.36,.36h-2.9c-.23,0-.36,.12-.36,.36v.39c0,.15,.06,.26,.16,.31,.05,.03,.12,.05,.2,.05h1.86c.24,0,.36,.12,.36,.36v1.34c0,.23-.12,.36-.36,.36h-1.86c-.23,0-.36,.12-.36,.36v.38c0,.06,.01,.11,.02,.15,.05,.14,.17,.21,.34,.21h2.9c.24,0,.36,.12,.36,.36v1.35c0,.24-.12,.36-.36,.36h-5.03c-.23,0-.36-.13-.36-.36v-7.68c0-.24,.13-.36,.36-.36h5.03c.24,0,.36,.12,.36,.36v1.34Zm7.92,3.81c0,.21-.01,.41-.03,.6-.06,.69-.26,1.22-.64,1.6h-.01c-.47,.47-1.21,.69-2.32,.69h-2.67c-.23,0-.36-.13-.36-.36v-7.67c0-.24,.12-.36,.36-.37h2.67c1.36,0,2.17,.33,2.6,1.02,0,0,.01,.01,.01,.02l.17,.36s.01,.02,.01,.03l.06,.1h-.02c.12,.38,.17,.83,.17,1.35v2.63Z"
       id="path3797"
       style="fill:#4e51ff;fill-opacity:1" />
  </g>
</svg>
