<?xml version="1.0" encoding="UTF-8" standalone="no"?>
<!-- Created with Inkscape (http://www.inkscape.org/) -->

<svg
   width="180.73422mm"
   height="180.6284mm"
   viewBox="0 0 180.73422 180.6284"
   version="1.1"
   id="svg5"
   xml:space="preserve"
   xmlns="http://www.w3.org/2000/svg"
   xmlns:svg="http://www.w3.org/2000/svg"><defs
     id="defs2" /><g
     id="layer1"
     transform="translate(432.73066,-7.5340855)"><path
       style="fill:#4e51ff;fill-opacity:1;stroke:none;stroke-width:0.352778"
       d="m -345.24157,7.7743624 c -17.51754,2.3845126 -30.07184,18.4488066 -26.2248,36.1861196 1.71521,7.908572 6.73982,14.142508 11.91049,20.108333 2.35444,2.716742 4.85351,5.301545 7.10036,8.113889 3.26954,4.093281 5.41655,8.449028 11.44728,7.695847 5.72664,-0.71508 9.88378,-9.360605 13.46518,-13.340291 6.82589,-7.584722 13.36675,-15.253053 14.65615,-25.752778 2.20662,-17.968065 -13.92732,-35.5194722 -32.35466,-33.0111196 m 3.175,54.1777866 h -0.70556 c -4.97064,-6.529564 -13.13427,-12.381442 -14.93343,-20.813889 -0.50024,-2.345478 -0.52741,-5.450981 0.13088,-7.761111 0.66181,-2.322618 1.69827,-4.498128 3.27589,-6.344849 11.23492,-13.151732 32.73954,0.34297 26.53242,16.222627 -2.89842,7.415389 -9.59415,12.515497 -14.3002,18.697222 m -2.11667,-31.209403 c -8.69527,2.072358 -4.93853,15.525961 3.88056,13.382483 8.64094,-2.100368 4.7498,-15.439389 -3.88056,-13.382483 m 45.50833,50.964958 c -1.49507,4.051653 -5.34105,8.790517 -9.525,10.294408 -3.36408,1.209322 -8.43562,0.288925 -11.99444,0.288925 -8.76476,0 -17.49319,-0.341489 -26.10556,1.560689 -4.29013,0.947561 -8.33719,2.354792 -12.34722,4.133144 -1.37618,0.609953 -3.76696,2.50931 -5.29166,2.1851 -1.3836,-0.294206 -2.57952,-1.991777 -3.52778,-2.940044 -2.76225,-2.761897 -5.64445,-5.434542 -8.11389,-8.466667 3.18946,0 6.74264,0.518937 9.49219,-1.449211 4.17724,-2.990144 3.44311,-9.560277 -1.02694,-11.822994 -2.28388,-1.156053 -4.92724,-0.838905 -7.40692,-0.838905 -5.93125,0 -15.36735,-1.78435 -20.81353,0.672041 -6.71978,3.030714 -3.89033,9.882364 0,13.791847 2.87972,2.894189 5.62504,5.90162 8.4716,8.819445 3.55706,3.646318 7.17233,8.331908 11.2836,11.288898 v 0.35277 c -1.31798,0.92852 -2.55623,2.82893 -4.08376,3.33517 -1.41499,0.46919 -4.01249,-0.92922 -5.44124,-1.25836 -3.52496,-0.81139 -7.3212,-1.23437 -10.93611,-0.98672 -15.08354,1.03258 -28.14087,10.29688 -33.91567,24.30991 -1.7644,4.28131 -2.75062,9.12813 -2.77295,13.75834 -0.14917,30.9319 35.3276,50.54529 61.03028,32.55398 12.79808,-8.95844 18.7766,-24.75301 15.71661,-39.96232 -0.98707,-4.90608 -3.03177,-9.62871 -5.84906,-13.75833 -1.0481,-1.5367 -4.56565,-4.49827 -4.55648,-6.35 0.007,-1.40899 2.18229,-2.91571 3.1556,-3.71687 10.80523,-8.89599 23.13728,-11.0998 36.68889,-11.0998 2.96086,0 9.36061,-1.21249 11.89743,0.36266 2.11596,1.31339 3.34328,7.19102 3.97757,9.51512 -4.2926,1.62772 -8.03275,5.6254 -10.78618,9.17222 -9.15917,11.79971 -10.65213,27.84828 -4.27038,41.275 6.85271,14.41733 23.02475,22.90269 38.69267,21.22523 5.67584,-0.60784 13.42954,-2.13184 17.57256,-6.4456 3.54683,-3.69323 1.86373,-10.2609 -3.10867,-11.63003 -3.77825,-1.04034 -6.52145,1.55258 -9.87778,2.72592 -4.47499,1.56457 -9.1126,1.98578 -13.75834,0.94544 -19.73791,-4.42066 -26.83862,-32.17686 -9.17221,-43.86262 0.79304,5.36998 3.73062,10.75901 5.52344,15.875 0.98213,2.80317 1.76141,6.48441 3.83539,8.70338 3.86504,4.13526 10.74773,1.93816 11.97399,-3.41172 0.63817,-2.78588 -0.91299,-5.55695 -1.80905,-8.11389 -2.0955,-5.98028 -4.80236,-11.87838 -6.471,-17.99166 10.04782,0 19.12197,4.88879 23.70349,14.11111 2.71604,5.4677 0.91511,19.16218 10.51595,17.52282 10.6546,-1.81962 4.75157,-18.62455 1.77483,-24.57838 -6.83719,-13.67402 -25.24266,-25.14247 -40.93316,-20.46111 l -2.82222,-7.76111 c 9.06921,-3.43853 15.4118,-14.802559 16.52587,-23.988893 0.59338,-4.892322 0.56127,-10.797822 -5.58976,-11.87838 -5.6702,-0.996244 -12.23292,-0.116064 -17.99166,-0.116064 -2.81482,0 -5.66103,-0.282928 -8.08108,1.449211 -4.17724,2.990145 -3.44311,9.560278 1.02693,11.822994 4.15008,2.100792 10.95728,0.838906 15.52081,0.838906 m -89.25277,43.744446 c -1.81434,5.73123 -6.47594,11.44023 -9.59658,16.58056 -1.32556,2.18369 -3.39034,4.72369 -3.39034,7.40833 0,5.74569 6.86516,8.69386 11.19128,5.36611 2.33645,-1.79741 3.69429,-5.00275 5.1823,-7.48277 2.87832,-4.79708 5.97959,-9.52571 8.60778,-14.46389 10.44998,7.71384 7.66868,25.56298 -0.15099,33.80669 -7.28944,7.68526 -18.90853,9.42058 -28.42401,5.19677 -2.87119,-1.27459 -5.35555,-3.2826 -7.50386,-5.54955 -16.64826,-17.56727 0.8406,-46.58853 24.08442,-40.86225 z"
       id="path10291" /></g></svg>
