<?xml version="1.0" encoding="UTF-8" standalone="no"?>
<!-- Created with Inkscape (http://www.inkscape.org/) -->

<svg
   width="110.88677mm"
   height="126.88911mm"
   viewBox="0 0 110.88677 126.88911"
   version="1.1"
   id="svg5"
   xml:space="preserve"
   inkscape:export-filename="logo.svg"
   inkscape:export-xdpi="96"
   inkscape:export-ydpi="96"
   xmlns:inkscape="http://www.inkscape.org/namespaces/inkscape"
   xmlns:sodipodi="http://sodipodi.sourceforge.net/DTD/sodipodi-0.dtd"
   xmlns:xlink="http://www.w3.org/1999/xlink"
   xmlns="http://www.w3.org/2000/svg"
   xmlns:svg="http://www.w3.org/2000/svg"><sodipodi:namedview
     id="namedview7"
     pagecolor="#ffffff"
     bordercolor="#000000"
     borderopacity="0.25"
     inkscape:showpageshadow="2"
     inkscape:pageopacity="0.0"
     inkscape:pagecheckerboard="0"
     inkscape:deskcolor="#d1d1d1"
     inkscape:document-units="mm"
     showgrid="false" /><defs
     id="defs2"><linearGradient
       inkscape:collect="always"
       id="linearGradient6301"><stop
         style="stop-color:#0003fd;stop-opacity:1;"
         offset="0"
         id="stop6297" /><stop
         style="stop-color:#a8aaff;stop-opacity:1;"
         offset="1"
         id="stop6299" /></linearGradient><linearGradient
       inkscape:collect="always"
       xlink:href="#linearGradient6301"
       id="linearGradient6303"
       x1="62.496956"
       y1="126.86808"
       x2="173.38373"
       y2="126.86808"
       gradientUnits="userSpaceOnUse"
       gradientTransform="translate(-23.083615,0.25090886)" /></defs><g
     inkscape:label="Capa 1"
     inkscape:groupmode="layer"
     id="layer1"
     transform="translate(-39.413339,-63.674433)"><path
       id="path2364"
       style="fill:url(#linearGradient6303);fill-opacity:1;stroke-width:0.30176"
       d="M 94.856475,63.674431 A 55.44355,55.44355 0 0 0 39.413339,119.11808 55.44355,55.44355 0 0 0 83.589975,173.3742 c 0.0423,7.90207 -3.68876,12.38179 -7.096212,17.15502 20.211082,0.53592 33.722927,-5.26562 45.242207,-12.95166 11.34282,-8.39156 20.0221,-19.77548 24.48378,-31.84664 2.81397,-8.51575 2.91577,-12.72404 3.30264,-17.38498 a 55.44355,55.44355 0 0 0 0.77773,-9.22786 55.44355,55.44355 0 0 0 -55.443645,-55.443649 z m 0.20618,21.41368 c 6.385985,-0.0274 11.680115,6.181813 10.900635,12.528948 -0.48585,3.956261 -2.95071,6.845401 -5.52266,9.703291 -1.349465,1.49953 -2.915825,4.75712 -5.073595,5.02656 -2.27236,0.28379 -3.08097,-1.35722 -4.31292,-2.89956 -0.8466,-1.05968 -1.78867,-2.03353 -2.67581,-3.05718 -1.94827,-2.2479 -3.84129,-4.59688 -4.48758,-7.576801 -1.44954,-6.683345 3.28105,-12.736365 9.88157,-13.634825 0.43396,-0.0591 0.86464,-0.08863 1.29036,-0.09043 z m -0.53123,5.344893 c -1.48441,0.009 -2.98123,0.608206 -4.17184,2.001945 -0.59444,0.695839 -0.98517,1.5154 -1.23455,2.39055 -0.24813,0.87045 -0.23756,2.0406 -0.0491,2.92437 0.67792,3.177321 3.75362,5.382101 5.62653,7.842421 h 0.26613 c 1.77322,-2.32925 4.29619,-4.25096 5.388315,-7.045051 1.68102,-4.30056 -2.032025,-8.136515 -5.825495,-8.114235 z m 0.22789,3.320215 c 2.82863,-0.0835 3.92623,4.38022 0.87385,5.12216 -3.323,0.80765 -4.73826,-4.26172 -1.46192,-5.04258 0.20324,-0.0484 0.39949,-0.07398 0.58807,-0.07958 z m 17.636145,13.831191 c 0.86207,-0.003 1.7108,0.038 2.51199,0.1788 2.31769,0.40715 2.3299,2.63228 2.10633,4.4757 -0.41978,3.46137 -2.80977,7.74312 -6.22701,9.03872 l 1.0635,2.92437 c 5.9121,-1.7639 12.84713,2.55731 15.42335,7.70961 1.12162,2.24338 3.34592,8.57531 -0.66869,9.26093 -3.61756,0.61771 -2.93915,-4.54198 -3.96255,-6.60218 -1.7263,-3.47492 -5.14526,-5.31699 -8.93124,-5.31699 0.62873,2.30346 1.64851,4.52557 2.43809,6.77892 0.33763,0.96344 0.92207,2.00747 0.68162,3.05718 -0.46205,2.0158 -3.05555,2.84383 -4.51187,1.28571 -0.78147,-0.83611 -1.07481,-2.22316 -1.44488,-3.27939 -0.67552,-1.92768 -1.7827,-3.95816 -2.08152,-5.98155 -6.65663,4.40315 -3.98104,14.86148 3.45612,16.52716 1.75049,0.392 3.49802,0.23347 5.18418,-0.35605 1.26464,-0.44212 2.2981,-1.41932 3.72173,-1.02733 1.87358,0.51589 2.50794,2.99057 1.17151,4.38216 -1.56108,1.62541 -4.48268,2.19977 -6.6213,2.4288 -5.90361,0.63204 -11.99689,-2.56505 -14.57896,-7.99745 -2.404615,-5.05912 -1.842445,-11.10646 1.60869,-15.55254 1.03747,-1.33644 2.44692,-2.8428 4.06435,-3.45612 -0.239,-0.87572 -0.70134,-3.09043 -1.49862,-3.58531 -0.95587,-0.59352 -3.36729,-0.13643 -4.48293,-0.13643 -5.106185,0 -9.753125,0.8302 -13.824485,4.18218 -0.36674,0.30187 -1.18608,0.86954 -1.18908,1.40043 -0.003,0.69773 1.32229,1.8136 1.71721,2.39262 1.06154,1.55602 1.83208,3.33559 2.204,5.18418 1.153,5.73079 -1.09985,11.6825 -5.92212,15.05799 -9.684657,6.77906 -23.052209,-0.61142 -22.996009,-12.26643 0.0084,-1.74464 0.380076,-3.571 1.044897,-5.18418 2.175921,-5.28005 7.095651,-8.77058 12.779065,-9.15965 1.36208,-0.0933 2.792497,0.0658 4.120677,0.37156 0.53834,0.12401 1.51736,0.65119 2.05052,0.47439 0.57557,-0.19074 1.0418,-0.90692 1.53841,-1.25678 v -0.1328 c -1.54911,-1.11418 -2.91114,-2.8801 -4.25142,-4.25401 -1.07257,-1.09943 -2.106984,-2.23228 -3.192053,-3.32279 -1.465861,-1.47308 -2.531981,-4.05464 0,-5.19658 2.052103,-0.92556 5.607543,-0.25322 7.842413,-0.25322 0.93434,0 1.9305,-0.11986 2.79105,0.31574 1.68429,0.85258 1.96102,3.32835 0.38705,4.45503 -1.03602,0.74159 -2.37527,0.54622 -3.57704,0.54622 0.93047,1.14249 2.01689,2.14931 3.05769,3.18999 0.3573,0.35729 0.80778,0.99708 1.32912,1.10794 0.5745,0.12215 1.47514,-0.59389 1.99368,-0.82372 1.51097,-0.67007 3.03592,-1.19998 4.65243,-1.55702 3.2451,-0.71672 6.53408,-0.58807 9.836615,-0.58807 1.34095,0 3.25204,0.34662 4.51962,-0.10904 1.57649,-0.56667 3.0256,-2.35218 3.58893,-3.87883 -1.71951,0 -4.28449,0.47531 -5.84822,-0.31626 -1.6843,-0.85258 -1.96103,-3.32784 -0.38706,-4.45451 0.91187,-0.65266 1.98416,-0.54622 3.04478,-0.54622 1.35617,0 2.83067,-0.12935 4.26744,-0.13488 z m -37.104724,21.65863 c -7.483444,0.13071 -12.362524,9.67423 -6.677629,15.67294 0.809467,0.85418 1.745888,1.61057 2.827735,2.09083 3.585388,1.59152 7.963303,0.93776 10.709943,-1.95802 2.94641,-3.10618 3.99436,-9.8317 0.0568,-12.73824 -0.99029,1.86069 -2.15869,3.64228 -3.24321,5.4498 -0.56069,0.93447 -1.07249,2.14221 -1.95285,2.81946 -1.630065,1.25388 -4.216801,0.14339 -4.216801,-2.02158 0,-1.01155 0.777972,-1.96876 1.277442,-2.79156 1.17584,-1.93686 2.932169,-4.08818 3.615799,-6.24768 -0.821078,-0.20228 -1.62312,-0.28947 -2.397269,-0.27595 z m 54.975464,32.53651 c -0.12367,0.1208 -0.24382,0.24223 -0.36897,0.36277 -0.12564,0.0805 -0.2507,0.16169 -0.3762,0.24237 a 55.44355,55.44355 0 0 0 0.74517,-0.60514 z" /></g></svg>
