<?xml version="1.0" encoding="UTF-8" standalone="no"?>
<!-- Created with Inkscape (http://www.inkscape.org/) -->

<svg
   width="110.88677mm"
   height="126.88911mm"
   viewBox="0 0 110.88677 126.88911"
   version="1.1"
   id="svg5"
   xml:space="preserve"
   inkscape:export-filename="logo.svg"
   inkscape:export-xdpi="96"
   inkscape:export-ydpi="96"
   xmlns:inkscape="http://www.inkscape.org/namespaces/inkscape"
   xmlns:sodipodi="http://sodipodi.sourceforge.net/DTD/sodipodi-0.dtd"
   xmlns:xlink="http://www.w3.org/1999/xlink"
   xmlns="http://www.w3.org/2000/svg"
   xmlns:svg="http://www.w3.org/2000/svg"><sodipodi:namedview
     id="namedview7"
     pagecolor="#ffffff"
     bordercolor="#000000"
     borderopacity="0.25"
     inkscape:showpageshadow="2"
     inkscape:pageopacity="0.0"
     inkscape:pagecheckerboard="0"
     inkscape:deskcolor="#d1d1d1"
     inkscape:document-units="mm"
     showgrid="false" /><defs
     id="defs2"><linearGradient
       inkscape:collect="always"
       id="linearGradient6301"><stop
         style="stop-color:#0003fd;stop-opacity:1;"
         offset="0"
         id="stop6297" /><stop
         style="stop-color:#a8aaff;stop-opacity:1;"
         offset="1"
         id="stop6299" /></linearGradient><linearGradient
       inkscape:collect="always"
       xlink:href="#linearGradient6301"
       id="linearGradient6303"
       x1="62.496956"
       y1="126.86808"
       x2="173.38373"
       y2="126.86808"
       gradientUnits="userSpaceOnUse"
       gradientTransform="translate(-23.083615,0.25090886)" /></defs><g
     inkscape:label="Capa 1"
     inkscape:groupmode="layer"
     id="layer1"
     transform="translate(-39.413339,-63.674433)"><path
       id="path2364"
       style="fill:url(#linearGradient6303);fill-opacity:1;stroke-width:0.30176"
       d="M 94.856475,63.674431 A 55.44355,55.44355 0 0 0 39.413339,119.11808 55.44355,55.44355 0 0 0 83.589975,173.3742 c 0.0423,7.90207 -3.68876,12.38179 -7.096212,17.15502 20.211082,0.53592 33.722927,-5.26562 45.242207,-12.95166 11.34282,-8.39156 20.0221,-19.77548 24.48378,-31.84664 2.81397,-8.51575 2.91577,-12.72404 3.30264,-17.38498 a 55.44355,55.44355 0 0 0 0.77773,-9.22786 55.44355,55.44355 0 0 0 -55.443645,-55.443649 z m 0.20618,21.41368 c 6.385985,-0.0274 11.680115,6.181813 10.900635,12.528948 -0.48585,3.956261 -2.95071,6.845401 -5.52266,9.703291 -1.349465,1.49953 -2.915825,4.75712 -5.073595,5.02656 -2.27236,0.28379 -3.08097,-1.35722 -4.31292,-2.89956 -0.8466,-1.05968 -1.78867,-2.03353 -2.67581,-3.05718 -1.94827,-2.2479 -3.84129,-4.59688 -4.48758,-7.576801 -1.44954,-6.683345 3.28105,-12.736365 9.88157,-13.634825 0.43396,-0.0591 0.86464,-0.08863 1.29036,-0.09043 z m -0.53123,5.344893 c -1.48441,0.009 -2.98123,0.608206 -4.17184,2.001945 -0.59444,0.695839 -0.98517,1.5154 -1.23455,2.39055 -0.24813,0.87045 -0.23756,2.0406 -0.0491,2.92437 0.67792,3.177321 3.75362,5.382101 5.62653,7.842421 h 0.26613 c 1.77322,-2.32925 4.29619,-4.25096 5.388315,-7.045051 1.68102,-4.30056 -2.032025,-8.136515 -5.825495,-8.114235 z m 0.22789,3.320215 c 2.82863,-0.0835 3.92623,4.38022 0.87385,5.12216 -3.323,0.80765 -4.73826,-4.26172 -1.46192,-5.04258 0.20324,-0.0484 0.39949,-0.07398 0.58807,-0.07958 z m 17.636145,13.831191 c 0.86207,-0.003 1.7108,0.038 2.51199,0.1788 2.31769,0.40715 2.3299,2.63228 2.10633,4.4757 -0.41978,3.46137 -2.80977,7.74312 -6.22701,9.03872 l 1.0635,2.92437 c 5.9121,-1.7639 12.84713,2.55731 15.42335,7.70961 1.12162,2.24338 3.34592,8.57531 -0.66869,9.26093 -3.61756,0.61771 -2.93915,-4.54198 -3.96255,-6.60218 -1.7263,-3.47492 -5.14526,-5.31699 -8.93124,-5.31699 0.62873,2.30346 1.64851,4.52557 2.43809,6.77892 0.33763,0.96344 0.92207,2.00747 0.68162,3.05718 -0.46205,2.0158 -3.05555,2.84383 -4.51187,1.28571 -0.78147,-0.83611 -1.07481,-2.22316 -1.44488,-3.27939 -0.67552,-1.92768 -1.7827,-3.95816 -2.08152,-5.98155 -6.65663,4.40315 -3.98104,14.86148 3.45612,16.52716 1.75049,0.392 3.49802,0.23347 5.18418,-0.35605 1.26464,-0.44212 2.2981,-1.41932 3.72173,-1.02733 1.87358,0.51589 2.50794,2.99057 1.17151,4.38216 -1.56108,1.62541 -4.48268,2.19977 -6.6213,2.4288 -5.90361,0.63204 -11.99689,-2.56505 -14.57896,-7.99745 -2.404615,-5.05912 -1.842445,-11.10646 1.60869,-15.55254 1.03747,-1.33644 2.44692,-2.8428 4.06435,-3.45612 -0.239,-0.87572 -0.70134,-3.09043 -1.49862,-3.58531 -0.95587,-0.59352 -3.36729,-0.13643 -4.48293,-0.13643 -5.106185,0 -9.753125,0.8302 -13.824485,4.18218 -0.36674,0.30187 -1.18608,0.86954 -1.18908,1.40043 -0.003,0.69773 1.32229,1.8136 1.71721,2.39262 1.06154,1.55602 1.83208,3.33559 2.204,5.18418 1.153,5.73079 -1.09985,11.6825 -5.92212,15.05799 -9.684657,6.77906 -23.052209,-0.61142 -22.996009,-12.26643 0.0084,-1.74464 0.380076,-3.571 1.044897,-5.18418 2.175921,-5.28005 7.095651,-8.77058 12.779065,-9.15965 1.36208,-0.0933 2.792497,0.0658 4.120677,0.37156 0.53834,0.12401 1.51736,0.65119 2.05052,0.47439 0.57557,-0.19074 1.0418,-0.90692 1.53841,-1.25678 v -0.1328 c -1.54911,-1.11418 -2.91114,-2.8801 -4.25142,-4.25401 -1.07257,-1.09943 -2.106984,-2.23228 -3.192053,-3.32279 -1.465861,-1.47308 -2.531981,-4.05464 0,-5.19658 2.052103,-0.92556 5.607543,-0.25322 7.842413,-0.25322 0.93434,0 1.9305,-0.11986 2.79105,0.31574 1.68429,0.85258 1.96102,3.32835 0.38705,4.45503 -1.03602,0.74159 -2.37527,0.54622 -3.57704,0.54622 0.93047,1.14249 2.01689,2.14931 3.05769,3.18999 0.3573,0.35729 0.80778,0.99708 1.32912,1.10794 0.5745,0.12215 1.47514,-0.59389 1.99368,-0.82372 1.51097,-0.67007 3.03592,-1.19998 4.65243,-1.55702 3.2451,-0.71672 6.53408,-0.58807 9.836615,-0.58807 1.34095,0 3.25204,0.34662 4.51962,-0.10904 1.57649,-0.56667 3.0256,-2.35218 3.58893,-3.87883 -1.71951,0 -4.28449,0.47531 -5.84822,-0.31626 -1.6843,-0.85258 -1.96103,-3.32784 -0.38706,-4.45451 0.91187,-0.65266 1.98416,-0.54622 3.04478,-0.54622 1.35617,0 2.83067,-0.12935 4.26744,-0.13488 z m -37.104724,21.65863 c -7.483444,0.13071 -12.362524,9.67423 -6.677629,15.67294 0.809467,0.85418 1.745888,1.61057 2.827735,2.09083 3.585388,1.59152 7.963303,0.93776 10.709943,-1.95802 2.94641,-3.10618 3.99436,-9.8317 0.0568,-12.73824 -0.99029,1.86069 -2.15869,3.64228 -3.24321,5.4498 -0.56069,0.93447 -1.07249,2.14221 -1.95285,2.81946 -1.630065,1.25388 -4.216801,0.14339 -4.216801,-2.02158 0,-1.01155 0.777972,-1.96876 1.277442,-2.79156 1.17584,-1.93686 2.932169,-4.08818 3.615799,-6.24768 -0.821078,-0.20228 -1.62312,-0.28947 -2.397269,-0.27595 z m 54.975464,32.53651 c -0.12367,0.1208 -0.24382,0.24223 -0.36897,0.36277 -0.12564,0.0805 -0.2507,0.16169 -0.3762,0.24237 a 55.44355,55.44355 0 0 0 0.74517,-0.60514 z" /><path
       style="fill:#ffffff;fill-opacity:1;stroke-width:0.670561"
       d="m 277.94768,577.89472 c -5.19274,-0.8729 -12.34195,-3.31436 -17.38886,-5.93831 -14.64525,-7.61424 -25.13891,-20.98058 -28.92904,-36.84846 -1.87437,-7.84732 -1.56096,-19.60096 0.71522,-26.82245 6.76335,-21.45763 25.45968,-36.91025 47.2909,-39.08618 6.75063,-0.67284 14.73064,-0.0277 19.44173,1.57176 4.83876,1.6428 6.55296,1.44511 9.62983,-1.11056 3.15138,-2.61755 3.36062,-3.4133 1.25952,-4.79003 -2.84358,-1.86323 -29.00046,-29.96204 -30.51054,-32.77569 -0.96034,-1.78935 -1.50876,-3.97282 -1.50876,-6.00695 0,-2.67274 0.33681,-3.53257 2.05799,-5.25376 3.75196,-3.75195 7.39332,-4.29954 24.879,-3.74128 13.77671,0.43985 15.62979,0.63607 18.12717,1.91954 4.84724,2.49113 6.65403,8.47038 3.91632,12.96036 -2.13678,3.50442 -4.32361,4.50295 -10.71333,4.8918 l -5.74493,0.34962 8.01106,8.21031 c 8.83823,9.05804 9.88831,9.55719 14.36472,6.82812 3.58976,-2.18853 11.81032,-5.25166 19.14278,-7.13296 6.463,-1.65823 7.82878,-1.7529 30.90207,-2.14201 26.28642,-0.4433 25.51231,-0.32764 30.54667,-4.56378 2.3086,-1.94256 7.34004,-9.21123 7.34004,-10.60379 0,-0.59331 -2.52173,-0.78708 -9.5555,-0.73424 -10.1778,0.0765 -11.18689,-0.16267 -14.76304,-3.49865 -5.1126,-4.76922 -2.69269,-13.68409 4.21975,-15.54541 1.33589,-0.35972 9.3467,-0.72475 17.80181,-0.81117 14.15437,-0.14469 15.58211,-0.0521 18.0119,1.16764 4.55042,2.28436 5.41049,4.13567 5.38965,11.60131 -0.0278,9.9519 -3.45138,19.16063 -10.45228,28.11437 -2.64987,3.38903 -9.37022,8.77041 -12.14654,9.72645 -0.63853,0.21988 -0.35107,1.76061 1.14443,6.13394 1.76607,5.16461 2.15397,5.79257 3.3528,5.42768 3.08792,-0.93989 13.22163,-1.15374 17.25878,-0.36422 13.17736,2.57702 27.40438,11.68922 35.02112,22.43052 6.42126,9.0554 10.49148,20.37606 10.55804,29.36545 0.0582,7.85999 -2.90635,11.82461 -9.29618,12.43216 -6.03257,0.57359 -8.51859,-2.927 -11.15856,-15.7125 -1.96704,-9.52643 -3.63659,-12.81808 -9.4828,-18.69608 -6.1516,-6.18505 -15.61843,-10.31722 -23.67841,-10.33537 -3.51691,-0.008 -3.53116,5.5e-4 -3.08668,1.83608 0.24559,1.01422 2.85184,8.18085 5.79165,15.92583 5.89289,15.52495 6.53869,18.98888 4.13963,22.20431 -3.33072,4.46413 -7.7833,5.9172 -12.00014,3.91618 -3.12157,-1.48128 -5.22571,-4.62114 -7.40345,-11.04766 -0.93459,-2.75792 -3.04669,-8.48456 -4.69358,-12.72586 -1.64688,-4.2413 -3.31434,-8.99774 -3.70544,-10.56987 -0.62959,-2.53075 -0.85825,-2.77967 -1.9947,-2.17146 -0.70597,0.37783 -2.74817,2.17482 -4.53822,3.99333 -18.03133,18.31799 -7.20303,52.42425 18.53493,58.38004 2.17035,0.50223 6.04048,0.7066 9.72799,0.51372 5.13671,-0.26869 7.09571,-0.72817 12.15395,-2.85075 3.31661,-1.39174 7.2747,-2.672 8.79578,-2.84502 5.68461,-0.64661 9.63286,3.37694 9.63729,9.82111 0.003,3.47548 -0.14608,3.78694 -3.21572,6.74567 -7.75993,7.47959 -28.98407,10.92686 -43.38578,7.04682 -6.39345,-1.72249 -16.98947,-7.23981 -21.49453,-11.19215 -12.17957,-10.68524 -18.23841,-23.21703 -18.9047,-39.10157 -0.53354,-12.7193 2.29933,-23.27317 8.93492,-33.28723 4.05443,-6.11871 11.1736,-13.25169 14.90577,-14.93466 1.54661,-0.69743 2.81203,-1.5084 2.81203,-1.80215 0,-1.60173 -3.54869,-11.24345 -4.66453,-12.67344 l -1.30813,-1.67641 -13.94535,0.16602 c -7.66993,0.0913 -16.35936,0.48326 -19.30983,0.87102 -8.08488,1.06252 -17.2769,3.68658 -23.37436,6.67271 -6.05194,2.96384 -15.86366,9.99633 -16.77509,12.02345 -0.93071,2.06999 -0.0512,4.11661 3.62269,8.43038 3.69349,4.33674 7.86756,12.31627 9.82153,18.77572 1.71285,5.66235 1.73178,22.2822 0.0325,28.49886 -5.52851,20.22505 -21.79024,35.75957 -41.74919,39.88221 -4.54407,0.9386 -14.37789,1.23635 -18.41574,0.55759 z m 16.29249,-19.98037 c 11.95121,-3.11289 20.4811,-11.2542 24.2321,-23.1282 4.22643,-13.37901 2.22651,-25.70246 -5.33447,-32.87099 -2.04957,-1.94318 -2.5797,-2.17392 -3.08139,-1.34112 -0.33326,0.55321 -4.11017,6.89002 -8.39312,14.08179 -4.28295,7.19177 -8.42899,13.78356 -9.21343,14.64842 -4.8343,5.32997 -12.93658,4.29655 -16.04834,-2.04691 -1.89626,-3.86563 -1.01835,-6.19579 7.06872,-18.76201 6.03765,-9.3817 10.57091,-17.50886 10.57091,-18.95139 0,-1.27317 -12.27804,-1.51603 -17.09932,-0.33821 -12.03998,2.94129 -22.8185,13.92725 -26.10398,26.60636 -3.13475,12.09738 0.40769,24.38352 9.58504,33.24351 7.19648,6.94761 14.08606,9.73477 24.25716,9.81315 3.14959,0.0243 7.45164,-0.40521 9.56012,-0.9544 z"
       id="path6521"
       transform="scale(0.26458333)" /><path
       style="fill:#ffffff;fill-opacity:1;stroke-width:0.670561"
       d="m 355.0756,372.69567 c -4.7815,-2.46838 -7.08637,-8.38867 -4.9441,-12.69944 1.74511,-3.51158 4.11245,-5.04281 7.88455,-5.09983 8.81565,-0.13327 13.38734,11.95615 6.43404,17.01421 -2.57323,1.87186 -6.61379,2.21023 -9.37449,0.78506 z"
       id="path6525"
       transform="scale(0.26458333)" /><path
       style="fill:#ffffff;fill-opacity:1;stroke-width:0.670561"
       d="m 277.94768,577.89472 c -22.63931,-3.80566 -41.07476,-20.83566 -46.3179,-42.78677 -1.8797,-7.86964 -1.56189,-19.61588 0.72573,-26.82245 6.2498,-19.68846 22.06241,-34.18067 41.81666,-38.32482 6.91344,-1.45034 17.03078,-1.27733 23.49669,0.4018 7.17433,1.8631 8.32554,1.76149 11.29228,-0.99671 1.38303,-1.28581 2.5146,-2.50688 2.5146,-2.71349 0,-0.2066 -1.5842,-1.82865 -3.52044,-3.60455 -6.7505,-6.19146 -27.00141,-28.19917 -28.49886,-30.97117 -0.96289,-1.78247 -1.50876,-3.94918 -1.50876,-5.98871 0,-2.67274 0.33681,-3.53257 2.05799,-5.25376 3.74288,-3.74287 7.43028,-4.30417 24.70331,-3.76038 16.58516,0.52214 19.59424,1.16584 21.89993,4.68477 1.80397,2.7532 1.97581,7.64118 0.35909,10.21423 -2.21231,3.52094 -4.37534,4.50412 -10.75317,4.88774 l -5.74493,0.34554 8.05734,8.21438 c 6.11799,6.23723 8.46754,8.21438 9.76159,8.21438 0.93733,0 3.79921,-1.06086 6.35972,-2.35746 2.56052,-1.2966 7.06951,-3.12659 10.01998,-4.06665 11.32649,-3.60877 13.30612,-3.82689 38.55728,-4.24818 25.54389,-0.42617 24.65351,-0.29988 29.63444,-4.20342 2.72323,-2.13419 8.10077,-9.71913 7.71369,-10.88005 -0.16053,-0.48146 -3.433,-0.73142 -9.57578,-0.73142 -9.90957,0 -10.99866,-0.26744 -14.53946,-3.57044 -5.1126,-4.76922 -2.69269,-13.68409 4.21975,-15.54541 1.33589,-0.35972 9.3467,-0.72475 17.80181,-0.81117 14.15437,-0.14469 15.58211,-0.0521 18.0119,1.16764 3.71366,1.8643 5.117,4.10124 5.54686,8.84183 1.26529,13.9539 -8.51705,32.97953 -20.09662,39.08582 -1.74727,0.92139 -3.16489,2.1284 -3.15029,2.68225 0.0146,0.55384 0.86051,3.11926 1.87977,5.70092 1.49547,3.78779 2.10522,4.65524 3.15862,4.49354 0.71797,-0.11022 4.18481,-0.37386 7.70409,-0.58587 10.06667,-0.60644 20.31286,2.49011 29.99447,9.06476 11.85581,8.05114 19.27339,18.24817 23.31149,32.04662 4.12303,14.08867 1.36599,22.68735 -7.54903,23.54398 -2.82845,0.27177 -3.55651,0.069 -5.43898,-1.51501 -2.77932,-2.33865 -3.81414,-4.88241 -5.55827,-13.66315 -1.80049,-9.06445 -4.26494,-13.98187 -9.66004,-19.27513 -6.28168,-6.16309 -15.91691,-10.30481 -23.97296,-10.30481 -3.82226,0 -3.92642,-1.28161 0.98098,12.0701 9.09872,24.75517 9.08649,24.68623 5.17355,29.14282 -5.37959,6.12702 -13.90034,3.88939 -16.93052,-4.44612 -0.58051,-1.5969 -2.30921,-6.22273 -3.84155,-10.27963 -1.53233,-4.0569 -3.53937,-9.63932 -4.4601,-12.40538 -2.87533,-8.63817 -2.11713,-8.32708 -7.35444,-3.01753 -6.74797,6.84104 -9.57812,13.58042 -9.57429,22.79909 0.007,16.74148 10.59752,30.99428 26.42581,35.56394 2.98573,0.86198 5.58202,1.07113 10.3937,0.8373 5.52251,-0.26838 7.25251,-0.66651 12.44888,-2.8649 3.31928,-1.40426 7.27956,-2.6869 8.80064,-2.85032 5.69746,-0.6121 9.63287,3.40549 9.63729,9.83857 0.003,3.48311 -0.14153,3.78255 -3.26496,6.79315 -5.89986,5.68671 -18.51033,9.05833 -31.60172,8.44923 -9.41315,-0.43795 -13.77375,-1.56519 -22.46381,-5.80704 -18.81589,-9.18453 -29.81669,-27.12233 -29.81669,-48.61881 0,-11.31212 3.00266,-21.43136 9.08137,-30.60499 3.83668,-5.7901 11.04829,-13.1002 14.76489,-14.96653 1.4397,-0.72295 2.72098,-1.37952 2.8473,-1.45903 0.39176,-0.2466 -1.94481,-7.71723 -3.34608,-10.69829 -2.01036,-4.27685 -3.16738,-4.53686 -17.83926,-4.00889 -20.77771,0.74769 -29.18142,2.30303 -40.18492,7.43735 -9.89988,4.61937 -18.32093,11.10029 -18.32093,14.09997 0,0.84638 1.05692,2.84478 2.3487,4.44089 6.88504,8.50702 10.90087,16.78896 12.44759,25.67086 1.1693,6.71464 0.473,19.62702 -1.37572,25.51157 -6.12895,19.50865 -21.99662,34.2613 -41.05296,38.16819 -4.73091,0.96992 -14.543,1.2833 -18.63634,0.59521 z m 16.29913,-19.9821 c 11.69888,-3.04717 19.88787,-10.78286 24.00673,-22.67783 4.43339,-12.80335 2.56591,-25.82482 -4.72465,-32.94386 -1.4845,-1.44958 -2.81531,-2.50432 -2.95737,-2.34388 -0.14205,0.16044 -3.9478,6.47764 -8.45724,14.03822 -4.50944,7.56058 -8.84961,14.45412 -9.64482,15.31898 -5.20037,5.65586 -14.24039,4.03451 -16.55161,-2.96856 -1.14748,-3.47692 0.0614,-6.36405 7.4173,-17.71491 6.97468,-10.76256 11.15434,-18.54985 10.37555,-19.33111 -0.24697,-0.24775 -3.44539,-0.55427 -7.10759,-0.68116 -8.05025,-0.27893 -13.6567,1.17438 -19.74754,5.11895 -15.80827,10.23781 -21.63655,30.84724 -13.20514,46.69478 2.29479,4.31325 10.29276,12.45368 14.23883,14.49246 7.40797,3.82741 18.38116,5.07551 26.35755,2.99792 z"
       id="path6527"
       transform="scale(0.26458333)" /><path
       style="fill:#ffffff;fill-opacity:1;stroke-width:0.670561"
       d="m 277.94768,577.89472 c -22.63931,-3.80566 -41.07476,-20.83566 -46.3179,-42.78677 -1.87437,-7.84732 -1.56096,-19.60096 0.71522,-26.82245 5.9177,-18.77471 20.88681,-32.99222 39.9029,-37.89941 7.38128,-1.90477 18.16719,-1.91641 25.42096,-0.0274 2.91726,0.75969 6.02191,1.38125 6.89922,1.38125 1.93642,0 7.71619,-5.27873 6.37128,-5.81897 -1.87571,-0.75347 -30.36649,-31.42689 -31.64636,-34.07075 -0.74994,-1.54917 -1.34532,-4.14636 -1.34532,-5.86858 0,-2.55416 0.35661,-3.44612 2.05799,-5.14751 3.74288,-3.74287 7.43028,-4.30417 24.70331,-3.76038 16.58516,0.52214 19.59424,1.16584 21.89993,4.68477 1.80397,2.7532 1.97581,7.64118 0.35909,10.21423 -2.21009,3.51742 -4.37659,4.50348 -10.75317,4.89424 l -5.74493,0.35205 8.10489,8.20787 c 5.46556,5.535 8.58352,8.20788 9.57463,8.20788 0.80835,0 3.1962,-0.86757 5.30633,-1.92792 5.25048,-2.63841 12.77869,-5.2955 19.5948,-6.91601 4.90415,-1.16595 9.02262,-1.41995 29.5047,-1.81968 26.91758,-0.52532 26.68272,-0.48251 31.85743,-5.80689 3.41057,-3.50922 6.77923,-8.82057 6.05319,-9.54405 -0.26087,-0.25994 -3.80274,-0.3755 -7.87082,-0.25679 -8.95111,0.2612 -13.06424,-0.60818 -15.87398,-3.35522 -5.34179,-5.2226 -3.15226,-14.06205 3.95738,-15.97647 1.33589,-0.35972 9.3467,-0.72475 17.80181,-0.81117 14.15437,-0.14469 15.58211,-0.0521 18.0119,1.16764 4.02167,2.01892 5.21736,4.13178 5.58562,9.87021 0.82971,12.92855 -7.30621,29.44643 -18.08528,36.71747 -2.46035,1.65964 -4.67881,3.22942 -4.92988,3.48841 -0.25108,0.25898 0.37249,2.74381 1.38569,5.52184 l 1.84219,5.05096 7.79303,-0.41713 c 6.67058,-0.35704 8.61053,-0.2101 13.46892,1.0202 17.52539,4.43803 32.81922,17.60948 39.16751,33.73208 6.94659,17.64212 4.85306,28.90188 -5.55975,29.90242 -3.23214,0.31057 -3.52309,0.20022 -5.99852,-2.27523 -2.32017,-2.32016 -2.76281,-3.32685 -4.09139,-9.30497 -2.5111,-11.29903 -3.29469,-13.53697 -6.27032,-17.90808 -5.61854,-8.25347 -16.25916,-14.31427 -26.52164,-15.10648 l -4.93935,-0.38129 0.48647,1.61143 c 0.26756,0.88629 2.88076,8.07866 5.80712,15.98304 6.28366,16.97278 6.67704,18.91341 4.4824,22.11233 -2.17553,3.17105 -4.58104,4.79729 -7.66097,5.17921 -2.99474,0.37134 -6.5254,-1.23211 -8.48128,-3.8518 -1.19051,-1.59457 -5.71921,-13.18928 -10.38147,-26.57944 -1.31625,-3.78029 -2.71252,-6.87326 -3.10282,-6.87326 -1.42774,0 -8.45,8.01236 -10.36865,11.83055 -6.52608,12.9872 -3.75332,29.06988 6.97199,40.43927 10.76858,11.41527 25.7439,13.87198 41.33139,6.78044 5.21402,-2.37213 8.67961,-2.59058 11.71699,-0.73857 2.84017,1.73175 4.22357,4.57738 4.22357,8.68781 0,2.8129 -0.34399,3.75456 -2.10365,5.75871 -2.89516,3.2974 -6.56598,5.29765 -13.65454,7.44044 -5.3499,1.61721 -7.17699,1.83118 -16.09347,1.88472 -8.61778,0.0518 -10.82022,-0.1602 -15.37718,-1.47976 -15.28014,-4.42467 -28.35211,-15.23145 -34.63727,-28.6351 -4.19904,-8.95484 -4.95331,-12.68944 -4.94322,-24.47549 0.009,-9.9953 0.0932,-10.63735 2.20829,-16.75004 4.50445,-13.01811 12.52306,-23.35378 23.16128,-29.85398 1.01114,-0.61782 1.00018,-0.98694 -0.1394,-4.69393 -1.67434,-5.44651 -3.16087,-8.15163 -5.22145,-9.50178 -1.58731,-1.04004 -3.0491,-1.06864 -17.92356,-0.35073 -16.55039,0.7988 -22.94895,1.76814 -31.56388,4.78174 -10.37567,3.62953 -23.85927,12.98635 -23.85927,16.55693 0,0.82495 1.6565,3.55698 3.68111,6.07115 4.49522,5.58217 7.75512,11.65304 9.83616,18.31773 1.37612,4.40716 1.56826,6.35623 1.55341,15.75819 -0.0162,10.26125 -0.10833,10.99207 -2.11322,16.76403 -6.66553,19.18966 -21.87645,32.99049 -40.58985,36.82707 -4.73091,0.96992 -14.543,1.2833 -18.63634,0.59521 z m 16.40088,-20.0086 c 14.59575,-3.80171 24.16043,-15.92032 26.1811,-33.17187 0.91457,-7.80832 -2.21497,-17.75011 -7.08422,-22.5048 -1.4386,-1.40476 -2.7322,-2.42284 -2.87466,-2.2624 -0.14246,0.16044 -4.04281,6.62852 -8.66745,14.3735 -4.62463,7.74498 -9.30799,14.93581 -10.40745,15.9796 -2.10821,2.00149 -6.08038,2.96583 -9.09737,2.20861 -2.63377,-0.66103 -5.70137,-3.64827 -6.5056,-6.33517 -1.05973,-3.54049 0.0485,-6.19252 7.22464,-17.28822 6.53923,-10.11097 11.28179,-18.90475 10.57689,-19.61195 -0.23803,-0.23881 -3.42913,-0.53802 -7.09133,-0.66491 -5.28805,-0.18322 -7.59437,0.0535 -11.20528,1.15032 -17.79702,5.40568 -29.21859,25.5276 -24.58582,43.31399 1.53996,5.91232 4.15375,10.23074 9.37334,15.48636 4.98622,5.02063 9.94344,7.93643 15.98391,9.40163 4.84686,1.17567 13.51558,1.14005 18.1793,-0.0747 z"
       id="path6529"
       transform="scale(0.26458333)" /><path
       style="fill:#ffffff;fill-opacity:1;stroke-width:0.670561"
       d="m 275.26543,577.40201 c -16.41071,-3.64748 -30.57671,-14.16854 -38.43761,-28.54755 -1.31056,-2.39726 -3.22099,-6.77267 -4.24539,-9.72314 -1.70892,-4.92203 -1.86447,-6.19411 -1.88593,-15.42291 -0.0203,-8.71292 0.18677,-10.73118 1.54775,-15.08763 5.94335,-19.02455 21.00932,-33.43254 40.00365,-38.25658 7.40331,-1.88024 18.21297,-1.8826 25.42096,-0.006 7.12172,1.85458 8.00586,1.77215 11.11442,-1.03625 l 2.67589,-2.41751 -12.64055,-13.17304 c -20.15282,-21.00175 -20.87094,-21.9585 -20.87094,-27.80592 0,-3.30096 1.56377,-5.48518 5.44,-7.59841 2.06322,-1.12482 3.82813,-1.22387 19.2521,-1.08042 15.07621,0.14021 17.30723,0.30239 19.89264,1.44604 3.57668,1.58213 5.15774,3.87408 5.5115,7.98965 0.20087,2.33684 -0.0761,3.69874 -1.07592,5.28994 -2.21231,3.52094 -4.37534,4.50412 -10.75317,4.88774 l -5.74493,0.34554 8.13227,8.21438 c 5.38464,5.43901 8.61959,8.21438 9.57462,8.21438 0.7933,0 3.16883,-0.87078 5.27896,-1.93506 2.11013,-1.06428 6.44938,-2.85658 9.64277,-3.98289 11.15218,-3.93338 13.67385,-4.23705 39.45673,-4.75162 26.35404,-0.52597 26.61614,-0.56837 31.07547,-5.0277 2.4457,-2.4457 7.14652,-8.98582 7.14652,-9.94275 0,-0.28153 -3.63828,-0.51187 -8.08508,-0.51187 -9.59834,0 -13.42731,-0.82816 -16.07622,-3.47707 -5.22848,-5.22848 -2.97931,-14.07791 4.05977,-15.97334 1.33439,-0.35931 9.3452,-0.73107 17.80181,-0.82612 14.23909,-0.16006 15.57074,-0.0738 18.01464,1.16691 4.61472,2.34278 5.41298,4.11856 5.37251,11.95155 -0.0292,5.64071 -0.35534,7.75221 -1.88278,12.18728 -3.54874,10.30414 -9.43924,18.38695 -16.93052,23.23166 -2.38885,1.5449 -4.22368,3.13571 -4.07742,3.53513 0.14626,0.39942 0.93292,2.7472 1.74812,5.21728 l 1.48219,4.49107 7.83615,-0.39215 c 6.66757,-0.33366 8.68257,-0.1778 13.51204,1.04514 22.59012,5.72039 39.33826,24.10101 42.91625,47.09939 1.21418,7.80435 -0.61987,13.08579 -5.3886,15.51744 -3.43016,1.74907 -6.81663,1.51866 -9.37993,-0.63822 -2.75569,-2.31876 -3.59718,-4.40451 -5.60885,-13.9022 -1.94442,-9.18024 -3.96614,-13.23743 -9.20941,-18.48149 -6.17303,-6.17393 -16.51135,-10.73118 -24.34418,-10.73118 -3.72669,0 -4.10693,-2.13035 3.1075,17.4104 6.27729,17.00246 6.66071,18.8975 4.46975,22.09106 -2.17699,3.17318 -4.5826,4.7982 -7.66097,5.17509 -3.05779,0.37437 -6.57158,-1.19673 -8.43688,-3.77231 -1.2184,-1.68236 -10.69386,-26.15419 -11.98853,-30.96223 -0.38,-1.41121 -1.04166,-2.56584 -1.47036,-2.56584 -1.38995,0 -8.40864,7.79911 -10.19995,11.3341 -2.85684,5.6377 -3.94162,11.02561 -3.52336,17.50004 1.43919,22.27824 21.18193,37.94028 42.15556,33.44224 1.9398,-0.41601 5.90417,-1.77389 8.80972,-3.01752 6.01896,-2.57623 9.26019,-2.82501 12.33995,-0.94717 2.86792,1.74867 4.22357,4.58429 4.22357,8.83442 0,3.3211 -0.1753,3.67835 -3.26747,6.65881 -3.32815,3.20791 -7.10873,5.00142 -15.17297,7.19808 -5.79421,1.57832 -21.93187,1.55118 -27.82829,-0.0468 -6.49213,-1.75942 -15.83025,-6.50367 -21.0421,-10.6905 -8.54503,-6.86447 -15.25527,-17.085 -18.17647,-27.68506 -1.7159,-6.22646 -2.08918,-19.0602 -0.74702,-25.68399 2.68025,-13.22762 11.26183,-26.87127 20.98431,-33.36249 2.14151,-1.42977 4.11885,-2.7747 4.39411,-2.98872 0.62654,-0.48717 -2.23646,-9.35309 -3.78205,-11.71196 -2.00422,-3.05883 -3.46331,-3.23528 -20.18806,-2.4413 -16.96794,0.80552 -24.144,1.97424 -32.85751,5.35133 -9.00391,3.48963 -20.31155,10.99025 -21.93282,14.54854 -0.91153,2.00059 -0.31021,3.29943 3.90741,8.43989 3.74718,4.56708 7.07632,10.92482 9.07888,17.33816 1.37612,4.40716 1.56826,6.35624 1.55341,15.75819 -0.0162,10.26125 -0.10833,10.99208 -2.11322,16.76403 -6.68724,19.25217 -21.79973,32.96273 -40.58985,36.82447 -6.00148,1.23343 -16.01982,1.28282 -21.31859,0.1051 z m 17.56923,-19.22472 c 1.9544,-0.40457 5.67251,-1.74078 8.26248,-2.96936 16.46874,-7.81208 24.61253,-32.1293 16.03683,-47.88569 -1.68956,-3.10427 -6.03329,-7.99492 -6.54842,-7.37293 -0.13184,0.1592 -4.03444,6.62626 -8.67244,14.37124 -4.63801,7.74498 -9.33976,14.94609 -10.44834,16.00246 -2.38568,2.2733 -7.00527,3.07592 -10.16675,1.7664 -2.67289,-1.10716 -5.20544,-4.18219 -5.72492,-6.95122 -0.56844,-3.03006 0.42998,-5.15531 8.01429,-17.05925 3.56304,-5.59236 7.37332,-12.0582 8.4673,-14.36854 l 1.98905,-4.20062 -1.51006,-0.43608 c -2.88168,-0.83218 -12.31347,-0.56432 -16.25208,0.46156 -14.75872,3.84416 -26.51804,19.44906 -26.48954,35.15223 0.0196,10.80482 5.41069,20.93106 14.83833,27.87129 3.55433,2.61655 9.57919,5.15399 13.98785,5.89116 3.45722,0.57807 10.78576,0.43752 14.21642,-0.27265 z"
       id="path6531"
       transform="scale(0.26458333)" /><path
       style="fill:#ffffff;fill-opacity:1;stroke-width:0.670561"
       d="m 354.05639,423.34752 c -2.20927,-1.22191 -4.28762,-3.30853 -8.57118,-8.60533 -2.23694,-2.76607 -6.2221,-7.44323 -8.85591,-10.3937 -10.91908,-12.23184 -15.20583,-18.71742 -18.17198,-27.49302 -2.55017,-7.54488 -2.56204,-17.03985 -0.0311,-24.86335 4.17016,-12.89048 14.6453,-23.328 27.9187,-27.81844 5.39394,-1.82479 15.508,-2.464 20.98766,-1.32643 6.71026,1.39305 14.1816,5.65146 19.94223,11.3664 13.66458,13.55619 16.85541,32.2165 8.37095,48.9541 -2.71939,5.36465 -7.60048,12.31001 -12.76479,18.16321 -2.11511,2.39726 -5.51009,6.6218 -7.5444,9.38786 -4.48289,6.09542 -9.24565,11.17048 -11.69139,12.458 -2.13872,1.12588 -7.68331,1.22459 -9.5888,0.1707 z m 8.91242,-28.25879 c 1.95135,-2.28331 5.63959,-6.55528 8.19607,-9.49327 2.55648,-2.938 5.7873,-7.58611 7.17959,-10.32914 2.34952,-4.62892 2.53069,-5.40157 2.52113,-10.75166 -0.008,-4.66708 -0.30731,-6.36636 -1.57054,-8.92695 -4.10308,-8.31701 -11.83314,-13.41876 -20.96552,-13.837 -4.46396,-0.20444 -5.6843,0.007 -9.23308,1.59958 -4.82808,2.16671 -8.90399,6.28834 -11.13434,11.25921 -4.4257,9.86377 -2.00409,20.00765 7.31521,30.64266 2.24682,2.56403 5.89564,6.75787 8.1085,9.31965 2.21285,2.56177 4.47599,4.66016 5.02921,4.66307 0.55321,0.003 2.60241,-1.86285 4.55377,-4.14615 z"
       id="path6533"
       transform="scale(0.26458333)" /><path
       style="fill:#ffffff;fill-opacity:1;stroke-width:0.670561"
       d="m 275.26543,577.40201 c -5.77835,-1.28431 -8.62219,-2.34128 -14.79114,-5.49744 -13.41856,-6.86518 -23.70245,-19.16635 -28.23964,-33.77909 -1.332,-4.28991 -1.56155,-6.45852 -1.56155,-14.75235 0,-8.31964 0.22679,-10.44909 1.57115,-14.75235 6.85156,-21.9317 25.58808,-37.43784 47.71511,-39.4885 6.32475,-0.58616 14.55499,0.0871 19.68381,1.6102 4.84491,1.43878 5.90354,1.27402 9.03474,-1.40617 l 2.80805,-2.40359 -12.65395,-13.18696 c -20.04272,-20.88696 -20.88433,-21.99946 -20.88433,-27.60608 0,-3.45545 1.48062,-5.71647 4.964,-7.58039 2.64577,-1.41573 3.3759,-1.46429 19.7281,-1.31221 15.07621,0.14021 17.30723,0.30239 19.89264,1.44604 3.57668,1.58213 5.15774,3.87408 5.5115,7.98965 0.20087,2.33684 -0.0761,3.69874 -1.07592,5.28994 -2.21231,3.52094 -4.37534,4.50412 -10.75317,4.88774 l -5.74493,0.34554 8.15964,8.21438 c 5.29682,5.33236 8.65608,8.21438 9.57462,8.21438 0.77824,0 3.14146,-0.87078 5.25159,-1.93506 2.11013,-1.06428 6.44938,-2.85658 9.64277,-3.98289 10.97709,-3.87163 13.77386,-4.21709 39.12144,-4.83244 12.90831,-0.31337 24.37491,-0.78626 25.48134,-1.05088 2.42249,-0.57937 10.30493,-8.30911 11.89888,-11.66838 l 1.11361,-2.34696 -9.52377,-0.35292 c -10.87527,-0.403 -13.58838,-1.28083 -15.9953,-5.1753 -1.89259,-3.06228 -1.95453,-7.61189 -0.13678,-10.04658 3.17083,-4.24697 3.80546,-4.42137 18.17382,-4.99409 19.26113,-0.76774 24.5363,0.11981 27.48534,4.62444 1.91765,2.92918 1.57573,13.79541 -0.64473,20.48954 -3.32291,10.0178 -9.51893,18.52881 -17.021,23.3805 -2.38885,1.5449 -4.22368,3.13571 -4.07742,3.53513 0.14626,0.39942 0.93174,2.74368 1.74552,5.20946 l 1.47959,4.48324 8.17403,-0.3762 c 9.40266,-0.43275 14.33746,0.48607 22.38485,4.16785 18.43081,8.43232 30.6805,24.41109 33.71328,43.97638 1.21019,7.8073 -0.62395,13.0866 -5.39112,15.51744 -3.58897,1.83005 -6.87419,1.53244 -9.6112,-0.87068 -2.63134,-2.31035 -3.1827,-3.70544 -5.47656,-13.85712 -2.13158,-9.4335 -4.19759,-13.37107 -9.77764,-18.63501 -6.59609,-6.22242 -16.1172,-10.39028 -23.73564,-10.39028 -1.83349,0 -2.31396,0.2669 -2.31396,1.28541 0,0.70698 2.42459,7.83317 5.38798,15.83598 6.35484,17.16163 6.76421,19.16997 4.5619,22.38007 -2.17699,3.17318 -4.5826,4.7982 -7.66097,5.17509 -3.05722,0.3743 -6.57005,-1.19601 -8.43876,-3.77231 -1.2891,-1.77721 -8.27585,-19.60343 -11.10405,-28.33122 -0.92621,-2.85827 -2.01667,-5.19685 -2.42325,-5.19685 -1.48487,0 -8.46444,8.17349 -10.45584,12.24442 -9.46098,19.34065 2.25284,44.15501 23.51519,49.81418 7.1987,1.91601 14.66753,1.06995 23.94499,-2.71243 6.5412,-2.66682 9.56512,-2.91415 12.64787,-1.03448 2.8443,1.73426 4.22357,4.5784 4.22357,8.70921 0,2.94773 -0.31336,3.73103 -2.42973,6.07361 -2.78448,3.08207 -8.55021,6.00689 -15.34015,7.7817 -3.51694,0.91929 -7.21603,1.23203 -14.75235,1.24725 -8.71066,0.0176 -10.72786,-0.18992 -15.05455,-1.54863 -19.01279,-5.97059 -32.92885,-19.91736 -37.91052,-37.99418 -1.7159,-6.22646 -2.08918,-19.06021 -0.74702,-25.684 2.75403,-13.59173 11.34575,-27.06915 21.521,-33.75899 l 4.23165,-2.78215 -0.98503,-3.42134 c -1.51277,-5.25438 -3.73832,-9.36579 -5.58944,-10.32575 -1.27269,-0.66 -4.34083,-0.7734 -12.74066,-0.4709 -22.32375,0.80395 -32.45157,2.69201 -43.25121,8.06302 -6.72105,3.3426 -14.44066,8.76578 -16.11496,11.32108 -1.42059,2.1681 -0.91973,3.62384 2.8313,8.22909 3.94579,4.84438 7.76181,12.04355 9.71043,18.3194 1.36477,4.39543 1.55942,6.38127 1.5446,15.75819 -0.0163,10.33784 -0.0961,10.95752 -2.18874,16.99792 -6.58451,19.00642 -21.79441,32.74326 -40.51433,36.59058 -6.00148,1.23343 -16.01982,1.28281 -21.31859,0.1051 z m 21.73911,-20.45533 c 12.72665,-4.46475 21.12568,-15.54102 23.23958,-30.64731 1.25861,-8.99432 -1.67815,-19.14336 -7.04265,-24.33837 -1.30691,-1.26562 -2.47796,-2.17088 -2.60233,-2.01169 -0.12438,0.1592 -3.92416,6.47538 -8.44397,14.03596 -4.51981,7.56058 -9.21303,14.76003 -10.42938,15.99879 -5.21434,5.31036 -14.78608,2.4388 -16.15269,-4.84587 -0.55991,-2.98457 0.52955,-5.37886 7.1163,-15.63945 3.03266,-4.72418 6.86109,-11.15058 8.5076,-14.28088 l 2.99367,-5.69146 -1.58352,-0.44439 c -2.51211,-0.70498 -12.02232,-0.61212 -15.33004,0.14968 -8.95859,2.06326 -18.32012,9.58902 -22.96197,18.45921 -6.48063,12.38392 -5.84173,25.40537 1.76989,36.07209 5.58887,7.83211 13.43867,12.96362 22.53321,14.73022 3.75435,0.72928 14.46788,-0.17186 18.3863,-1.54653 z"
       id="path6535"
       transform="scale(0.26458333)" /><path
       style="fill:#ffffff;fill-opacity:1;stroke-width:0.670561"
       d="m 275.98641,577.63008 c -11.82411,-2.31984 -25.19406,-10.1744 -32.81718,-19.27938 -4.08856,-4.88334 -8.52603,-12.90582 -10.6308,-19.21938 -1.60895,-4.82627 -1.79224,-6.37367 -1.82685,-15.42291 -0.0335,-8.74756 0.16637,-10.71078 1.53333,-15.064 5.81499,-18.51847 19.12465,-31.90345 37.32075,-37.53194 8.95543,-2.77014 21.40671,-2.89864 30.30192,-0.31274 4.3684,1.26993 6.1205,0.92555 9.24403,-1.81695 l 2.35438,-2.06718 -12.99127,-13.51368 c -19.53475,-20.32028 -20.52704,-21.63816 -20.52704,-27.26224 0,-3.45545 1.48062,-5.71647 4.964,-7.58039 2.64382,-1.41468 3.38704,-1.46458 19.704,-1.32287 15.11682,0.13128 17.27509,0.28817 19.89263,1.44604 3.59075,1.58835 5.17322,3.86618 5.55804,8.00031 0.58158,6.24782 -4.08129,10.18506 -12.06432,10.1869 -2.95652,6.7e-4 -4.52629,0.26778 -4.52629,0.77015 0,1.09455 14.36541,15.11118 16.028,15.63887 0.90226,0.28636 3.42176,-0.47387 7.26153,-2.1911 15.25446,-6.8221 19.31427,-7.51838 47.48115,-8.14338 21.33367,-0.47337 23.77139,-0.64413 26.48718,-1.85545 3.43101,-1.53033 8.58049,-6.76414 10.65393,-10.82842 l 1.41697,-2.77748 h -8.09871 c -9.61176,0 -13.4401,-0.82732 -16.08985,-3.47707 -5.21844,-5.21844 -2.98024,-14.07766 4.03377,-15.96633 1.32007,-0.35546 9.33089,-0.72784 17.8018,-0.82751 14.28021,-0.16802 15.59383,-0.0836 18.04065,1.15991 4.02762,2.04683 5.21769,4.15324 5.58562,9.88654 0.58444,9.1068 -3.5768,21.11832 -10.22504,29.51479 -1.68166,2.12387 -5.30115,5.5208 -8.04332,7.54873 l -4.98576,3.68714 1.75489,4.97808 1.7549,4.97807 8.10684,-0.37302 c 9.80583,-0.45121 14.5847,0.52854 23.52974,4.82396 13.23697,6.35641 23.36207,16.71275 28.48469,29.13523 7.28716,17.67154 5.25221,29.70986 -5.19176,30.7134 -2.96439,0.28484 -3.53585,0.1043 -5.70878,-1.80356 -2.71202,-2.38118 -3.26132,-3.75082 -5.52875,-13.78558 -0.91834,-4.06419 -2.51111,-8.7844 -3.74597,-11.10121 -2.72056,-5.1043 -9.25227,-11.26763 -14.80437,-13.96943 -7.39211,-3.59718 -17.30999,-5.38893 -17.30999,-3.12719 0,0.53562 1.38749,4.8356 3.08331,9.5555 9.47776,26.37899 9.25774,25.44038 6.80747,29.04057 -4.29749,6.31432 -11.94683,6.94208 -16.06352,1.31829 -0.68138,-0.93082 -3.65709,-8.17289 -6.61271,-16.09347 -7.17204,-19.21999 -6.4016,-17.60451 -7.99036,-16.75423 -2.12114,1.1352 -8.13733,8.74029 -9.82117,12.41501 -8.75951,19.11615 3.3446,43.4803 24.31453,48.94227 7.34325,1.91268 14.67917,1.01565 24.3122,-2.97284 5.73726,-2.37547 8.93472,-2.57278 11.94531,-0.73711 2.86792,1.74867 4.22357,4.58429 4.22357,8.83442 0,3.3144 -0.17904,3.68195 -3.22247,6.61543 -6.17236,5.94937 -18.38336,9.16544 -32.31728,8.51154 -9.02086,-0.42333 -14.3829,-1.88537 -22.81184,-6.21998 -13.20536,-6.79092 -23.36329,-19.29561 -27.19065,-33.47245 -1.63133,-6.04263 -1.99968,-19.65192 -0.69772,-25.77885 2.92092,-13.7456 11.6412,-27.40683 21.42587,-33.56583 4.30621,-2.71057 4.49045,-3.42931 2.357,-9.19507 -2.03304,-5.49439 -3.50077,-7.33947 -6.24845,-7.85494 -3.99642,-0.74973 -30.30524,0.89777 -37.44059,2.34458 -10.99366,2.22917 -21.3441,7.02664 -29.50848,13.6773 -5.53843,4.51157 -5.57428,5.62438 -0.38283,11.88478 3.52964,4.25642 7.52334,11.88122 9.4162,17.97749 1.36537,4.39739 1.55912,6.37708 1.54222,15.75819 -0.0199,11.05358 -0.3005,12.70923 -3.52408,20.79435 -6.51881,16.34992 -22.47074,29.63773 -39.48886,32.89384 -5.46473,1.04557 -15.55426,1.16171 -20.28536,0.23348 z m 16.82297,-19.68747 c 14.8922,-3.15636 25.00376,-14.74624 27.30591,-31.29804 0.8101,-5.82446 0.028,-12.44106 -2.04133,-17.26851 -1.53463,-3.58012 -5.629,-8.80202 -6.90148,-8.80202 -0.48622,0 -4.46238,5.95962 -8.83592,13.24359 -4.37355,7.28397 -9.03676,14.42174 -10.36269,15.86171 -2.11805,2.30021 -2.85138,2.65352 -6.03917,2.90961 -2.99963,0.24098 -4.03507,0.0182 -5.97534,-1.28585 -3.04138,-2.04404 -4.97023,-5.91165 -4.41753,-8.85777 0.22809,-1.21583 3.61212,-7.31319 7.52008,-13.5497 3.90795,-6.23651 7.97698,-13.14963 9.0423,-15.36248 l 1.93693,-4.02337 -2.5146,-0.5574 c -3.63235,-0.80517 -13.36114,-0.1129 -17.26695,1.22866 -5.00803,1.72014 -12.02892,6.67087 -15.53561,10.95482 -12.18202,14.88218 -11.62079,34.2342 1.36956,47.22455 8.90957,8.90957 20.23655,12.22715 32.71584,9.5822 z"
       id="path6537"
       transform="scale(0.26458333)" /><path
       style="fill:#ffffff;fill-opacity:1;stroke-width:0.670561"
       d="m 274.8686,577.36376 c -19.5236,-4.24785 -36.11546,-19.25346 -42.27402,-38.23244 -2.37784,-7.32787 -2.94299,-19.28014 -1.27197,-26.90113 1.2755,-5.8172 5.03356,-14.46072 8.47123,-19.48381 13.07632,-19.10703 38.25035,-28.29088 60.12083,-21.93296 4.32137,1.25626 6.08006,0.90602 9.1983,-1.83184 l 2.35576,-2.06838 -13.33635,-13.84776 c -19.206,-19.94249 -20.1847,-21.25593 -20.1847,-27.08825 0,-3.54791 1.2536,-5.43584 4.90588,-7.38825 2.71609,-1.45195 3.34642,-1.49509 19.76212,-1.35252 15.19488,0.13196 17.26559,0.28397 19.93131,1.46314 4.13187,1.82772 5.84488,4.71798 5.50688,9.29137 -0.43607,5.90025 -4.4032,8.87978 -11.82308,8.87978 -2.20294,0 -4.18186,0.28564 -4.39763,0.63475 -0.46823,0.75761 14.01067,15.24639 15.80516,15.81594 0.73353,0.23281 3.66832,-0.6931 7.12695,-2.24852 14.80785,-6.65941 22.41681,-7.92248 50.52896,-8.38764 22.67852,-0.37526 23.21248,-0.4667 28.00413,-4.79567 2.87852,-2.60057 6.80832,-8.05604 6.80832,-9.45153 0,-0.60374 -2.4857,-0.88911 -9.22022,-1.05852 -7.77299,-0.19554 -9.64123,-0.45272 -11.90246,-1.63847 -7.03315,-3.68807 -7.03654,-13.62758 -0.006,-17.0311 2.41474,-1.16896 4.43561,-1.32969 18.79037,-1.49452 14.96615,-0.17185 16.2684,-0.0914 18.72383,1.15643 4.02762,2.04683 5.21769,4.15324 5.58562,9.88654 0.58444,9.1068 -3.5768,21.11832 -10.22504,29.51479 -1.68166,2.12387 -5.30115,5.5208 -8.04332,7.54873 l -4.98576,3.68714 1.74728,4.95649 1.74729,4.95648 7.91912,-0.36486 c 6.21192,-0.2862 8.97315,-0.11148 12.80838,0.81045 17.24722,4.14599 32.87168,17.33062 39.4541,33.29315 2.96984,7.20194 4.17614,12.38636 4.20961,18.09194 0.0461,7.85021 -3.00642,11.89326 -9.44648,12.51207 -2.96992,0.28537 -3.53414,0.1058 -5.73262,-1.82448 -2.58524,-2.26988 -3.34181,-4.18515 -5.83559,-14.77279 -1.98295,-8.41884 -4.61996,-13.29 -9.72879,-17.97132 -4.92668,-4.5144 -10.83079,-7.6713 -17.11903,-9.15345 -5.69693,-1.34277 -8.68183,-1.34807 -8.68183,-0.0154 0,0.56288 2.42563,7.69665 5.39029,15.85282 6.36732,17.51734 6.75253,19.42879 4.55959,22.62522 -2.17699,3.17318 -4.5826,4.7982 -7.66097,5.17509 -3.2429,0.39703 -6.74359,-1.27504 -8.64984,-4.13152 -0.74715,-1.11959 -3.70778,-8.36165 -6.57918,-16.09347 -6.97876,-18.79172 -6.24887,-17.26028 -7.82435,-16.4171 -2.00578,1.07346 -7.90708,8.63195 -9.69511,12.41766 -4.65135,9.8481 -3.67031,22.12384 2.6323,32.93768 2.93396,5.03402 8.96243,10.53537 14.59569,13.31948 9.54413,4.71696 18.99736,4.72206 30.36506,0.0164 6.43499,-2.66378 9.73723,-2.93065 12.84158,-1.03781 2.8443,1.73426 4.22357,4.5784 4.22357,8.70921 0,2.94499 -0.31394,3.73167 -2.41912,6.06185 -5.46381,6.04778 -15.25834,8.98608 -30.10311,9.03075 -11.64514,0.035 -15.97414,-0.97993 -25.82936,-6.05586 -13.21348,-6.80561 -23.36404,-19.30294 -27.19065,-33.477 -1.63133,-6.04262 -1.99968,-19.65191 -0.69772,-25.77884 2.91529,-13.71912 10.61695,-25.94609 21.01851,-33.36849 2.59388,-1.85095 4.20037,-3.47812 4.20037,-4.25443 0,-1.55804 -2.54644,-8.49052 -3.86474,-10.52146 -1.66831,-2.57014 -4.93226,-2.94773 -19.10921,-2.21063 -15.84341,0.82374 -21.94763,1.63433 -28.9669,3.84654 -8.54511,2.6931 -15.95709,6.61984 -22.94067,12.15357 -5.25665,4.16534 -5.2737,5.41119 -0.15829,11.56929 3.25205,3.91493 7.38876,11.69922 9.41601,17.71863 1.39877,4.15334 1.58108,5.92957 1.58301,15.42291 0.002,11.38671 -0.39595,13.71868 -3.73743,21.88423 -6.58235,16.08515 -21.88593,28.86462 -38.83542,32.43006 -5.79442,1.21889 -16.28603,1.22447 -21.86041,0.0116 z m 16.4903,-19.15152 c 13.36476,-2.11731 24.14953,-12.42743 27.77634,-26.55389 1.492,-5.81135 1.37224,-14.51263 -0.27226,-19.78177 -1.36366,-4.36931 -5.65076,-10.80818 -7.42357,-11.1496 -0.65654,-0.12644 -3.86629,4.52571 -9.48136,13.7421 -4.66884,7.66329 -9.40958,14.81313 -10.53498,15.88854 -2.89638,2.76772 -8.11227,3.19791 -11.46371,0.94548 -3.05535,-2.05343 -4.97053,-5.91003 -4.41238,-8.88521 0.23092,-1.23093 3.30652,-6.87483 6.83466,-12.54202 7.90117,-12.69148 10.98895,-18.17316 10.98895,-19.50851 0,-1.85631 -7.84785,-2.48805 -14.82847,-1.19367 -8.48774,1.57384 -18.6093,8.77752 -23.10033,16.44088 -8.742,14.91709 -6.92228,31.07247 4.82294,42.81768 8.56201,8.56202 18.68483,11.74592 31.09417,9.77999 z"
       id="path6539"
       transform="scale(0.26458333)" /><path
       style="fill:#ffffff;fill-opacity:1;stroke-width:0.670561"
       d="m 273.55187,577.04453 c -20.312,-5.32703 -35.14155,-19.30912 -41.30856,-38.94793 -1.35455,-4.31356 -1.57021,-6.38181 -1.57021,-15.05875 0,-8.72985 0.20481,-10.66974 1.55054,-14.68658 6.54183,-19.5266 20.72189,-32.98195 40.02426,-37.97875 7.52866,-1.94894 18.02755,-1.93892 26.35661,0.0251 l 6.23977,1.47139 2.67827,-1.77239 c 1.47305,-0.97482 2.85722,-2.23872 3.07593,-2.80867 0.27099,-0.70619 -2.04754,-3.52625 -7.279,-8.85352 -23.07205,-23.49463 -25.3718,-26.41124 -25.3718,-32.1772 0,-3.29636 0.22431,-3.85683 2.34355,-5.85552 3.60803,-3.40281 7.3522,-3.90813 24.81418,-3.34894 12.19528,0.39053 15.24323,0.68824 17.58435,1.71753 3.98038,1.75 5.69802,4.70253 5.36411,9.22059 -0.43607,5.90025 -4.4032,8.87978 -11.82308,8.87978 -2.20294,0 -4.16229,0.25396 -4.35412,0.56435 -0.19183,0.31039 3.24017,4.10909 7.62666,8.44155 8.98644,8.87575 7.62565,8.47666 16.11262,4.72554 13.89503,-6.14141 22.02554,-7.45657 49.62154,-8.02656 10.87986,-0.22472 20.87096,-0.69527 22.20245,-1.04566 1.33149,-0.35039 3.79349,-1.84528 5.47111,-3.32198 3.11531,-2.74221 7.19563,-8.28228 7.19563,-9.76991 0,-0.60313 -2.49254,-0.8927 -9.22022,-1.07116 -7.35124,-0.195 -9.74598,-0.50299 -11.81399,-1.5194 -7.16098,-3.51956 -7.2838,-13.65714 -0.20697,-17.08298 2.55516,-1.23693 4.32089,-1.38163 18.90306,-1.54907 14.96592,-0.17185 16.26817,-0.0914 18.7236,1.15643 4.02762,2.04683 5.21769,4.15324 5.58562,9.88654 0.58444,9.1068 -3.5768,21.11832 -10.22504,29.51479 -1.68166,2.12387 -5.29967,5.5197 -8.04001,7.54627 l -4.98243,3.68469 1.78032,4.95002 1.78032,4.95003 8.07809,-0.33094 c 9.83246,-0.40281 14.71919,0.58896 23.46988,4.76325 14.37198,6.85577 24.85786,18.33035 29.8463,32.66045 4.83652,13.89372 3.91534,22.95107 -2.67081,26.26007 -3.43743,1.72702 -6.8529,1.517 -9.33817,-0.57421 -2.85405,-2.40154 -3.13498,-3.05888 -5.7577,-13.47228 -2.63694,-10.46987 -4.84991,-14.7549 -10.11777,-19.59127 -1.88857,-1.73387 -5.54072,-4.25967 -8.11588,-5.61288 -7.11137,-3.73691 -17.61978,-5.83957 -17.61978,-3.52559 0,0.53728 2.42619,7.67508 5.39152,15.86179 6.37027,17.58707 6.74896,19.46979 4.55836,22.66281 -2.17699,3.17318 -4.5826,4.7982 -7.66097,5.17509 -3.26047,0.39918 -6.74566,-1.27833 -8.68165,-4.17872 -0.76464,-1.14554 -3.72576,-8.38761 -6.58026,-16.09347 -2.8545,-7.70586 -5.48092,-14.7086 -5.83649,-15.56163 l -0.6465,-1.55097 -1.96567,1.39968 c -3.17326,2.25957 -8.62857,10.08299 -10.10226,14.48758 -6.52917,19.51457 5.80932,41.56601 25.89324,46.27655 7.44775,1.74682 15.37143,0.52013 25.89362,-4.00866 5.13671,-2.21086 10.70906,-0.67362 12.89729,3.55795 0.57112,1.10442 1.0384,3.53092 1.0384,5.39221 0,2.91575 -0.31989,3.73826 -2.31106,5.94224 -2.97983,3.29832 -7.45944,5.70753 -14.13789,7.60359 -4.48032,1.27199 -7.02458,1.52211 -15.738,1.54716 -9.0776,0.0261 -11.03051,-0.16917 -15.42291,-1.54207 -18.58627,-5.80936 -31.9263,-18.83571 -37.53263,-36.65005 -2.10812,-6.69864 -2.61358,-19.49211 -1.07381,-27.17888 2.6757,-13.35747 10.5514,-25.85727 20.98103,-33.2997 4.22614,-3.01571 4.31634,-3.14317 3.89454,-5.50295 -0.23748,-1.32865 -1.29784,-4.29066 -2.35634,-6.58224 -1.96641,-4.25712 -1.89327,-4.20212 -6.93283,-5.2129 -0.67474,-0.13533 -7.01154,0.0353 -14.08179,0.37922 -19.53602,0.95023 -28.13413,2.73498 -38.6716,8.02721 -6.16279,3.09514 -14.36239,8.80704 -15.80636,11.01081 -1.38173,2.10879 -0.89647,3.50825 2.78249,8.02455 3.74843,4.60159 7.76644,12.04995 9.78991,18.14794 1.38112,4.16221 1.55559,5.94726 1.54014,15.75819 -0.0185,11.75558 -0.51779,14.51213 -4.09278,22.59582 -6.86213,15.51649 -22.06736,27.96631 -38.37822,31.42353 -6.33245,1.3422 -17.45341,1.17588 -23.26375,-0.34795 z m 17.80703,-18.82146 c 9.99174,-1.55809 19.45582,-8.4967 24.31499,-17.82659 3.43644,-6.59816 4.7031,-12.49352 4.39414,-20.45138 -0.22534,-5.80415 -0.49456,-6.9399 -2.7054,-11.41323 -1.35034,-2.73221 -3.25404,-5.71589 -4.23045,-6.63039 l -1.77528,-1.66272 -1.45861,1.82408 c -0.80223,1.00324 -4.82874,7.34005 -8.94778,14.08179 -8.95824,14.66215 -10.24334,16.0615 -15.1089,16.45204 -2.89696,0.23254 -3.95905,-10e-4 -5.88225,-1.29357 -3.02458,-2.03275 -4.96987,-5.91356 -4.42366,-8.82512 0.22472,-1.19787 3.92889,-7.89874 8.23149,-14.89083 7.93365,-12.89286 10.21229,-17.35711 9.3163,-18.25222 -0.27291,-0.27264 -3.71468,-0.48315 -7.64837,-0.4678 -8.29299,0.0324 -12.03683,1.0598 -18.06954,4.95893 -18.83491,12.17359 -23.06942,36.77778 -9.01918,52.40503 9.32939,10.37653 19.55397,14.09067 33.0125,11.99198 z"
       id="path6541"
       transform="scale(0.26458333)" /></g></svg>
